<?xml version="1.0" encoding="UTF-8"?>
<svg width="158px" height="74px" viewBox="0 0 158 74" version="1.1" xmlns="http://www.w3.org/2000/svg" xmlns:xlink="http://www.w3.org/1999/xlink">
    <!-- Generator: Sketch 49 (51002) - http://www.bohemiancoding.com/sketch -->
    <title>annia logo az</title>
    <desc>Created with Sketch.</desc>
    <defs>
        <polygon id="path-1" points="0.0275478261 0.674347826 101.704852 0.674347826 101.704852 41.3451261 0.0275478261 41.3451261"></polygon>
        <polygon id="path-3" points="0 0.251086957 4.04745 0.251086957 4.04745 7.82315217 0 7.82315217"></polygon>
        <polygon id="path-5" points="0 75.3691304 131.862978 75.3691304 131.862978 0.717391304 0 0.717391304"></polygon>
    </defs>
    <g id="annia-logo-az" stroke="none" stroke-width="1" fill="none" fill-rule="evenodd">
        <g id="Page-1" transform="translate(13.000000, 0.000000)">
            <g id="Group-3" transform="translate(15.065217, 0.043043)">
                <mask id="mask-2" fill="white">
                    <use xlink:href="#path-1"></use>
                </mask>
                <g id="Clip-2"></g>
                <path d="M58.6857652,16.7400391 L54.6834391,17.0104957 L54.6834391,35.7932348 C56.0256783,35.8621043 57.3593087,35.9668435 58.6857652,36.0981261 L58.6857652,16.7400391 Z M19.6238087,12.0052565 L22.2006783,30.2226913 C24.0415043,29.5713 25.9017,28.9744304 27.7776783,28.4306478 L19.6238087,12.0052565 Z M0.0275478261,41.2647783 C5.85706957,37.4281696 11.9907652,34.2228652 18.3604826,31.6711043 L13.975787,0.67406087 C15.8094391,1.55358261 17.6768087,2.36925652 19.5764609,3.11893043 L33.0727435,30.4859739 L33.0727435,7.19227826 C34.9709609,7.59616957 36.8935696,7.9319087 38.834113,8.20666957 L46.2289826,26.6077565 L46.2289826,8.93338696 C47.5554391,9.0044087 48.8905043,9.04099565 50.2320261,9.05103913 L50.2320261,35.6777348 C48.7276565,35.6777348 47.2318957,35.7171913 45.7454609,35.7946696 L36.9681783,14.2270174 L37.0678957,36.6928435 C35.4688304,36.9417783 33.884113,37.2359087 32.3151783,37.5723652 L29.6464826,32.1962348 C27.3343304,32.8454739 25.0480043,33.5764957 22.7903739,34.3957565 L23.5752,39.9426261 C22.2781565,40.3694739 20.9933087,40.8250174 19.7235261,41.3121261 L18.9559174,35.8814739 C15.1243304,37.4583 11.3831348,39.2826261 7.74667826,41.3451261 L0.0770478261,41.3451261 L0.0275478261,41.2647783 Z M58.6857652,8.69664783 C57.3593087,8.81788696 56.0256783,8.90899565 54.6834391,8.96853913 L54.6834391,13.6717565 C54.6834391,13.6717565 55.4374174,13.6344522 56.6842435,13.5598435 C58.1513087,13.470887 58.6857652,13.4005826 58.6857652,13.4005826 L58.6857652,8.69664783 Z M72.6648522,28.0425391 C74.4985043,28.5497348 76.3178087,29.1021261 78.1177435,29.7097565 L80.6637652,12.0303652 L72.6648522,28.0425391 Z M67.9293522,37.5228652 C66.3475043,37.1878435 64.7484391,36.9016043 63.1364609,36.6555391 L63.1364609,16.2127565 L67.1395043,15.5391261 L67.1395043,30.4859739 L80.2842652,3.83201739 C82.2671348,3.10314783 84.216287,2.30253913 86.130287,1.43377826 L81.9357,31.0864304 C88.829113,33.7221261 95.4441783,37.1031913 101.704852,41.200213 L101.615896,41.3451261 L94.0689391,41.3451261 C89.958287,39.0150391 85.7120478,36.9819522 81.3445696,35.2681043 L80.5030696,41.2188652 C79.2347217,40.7367783 77.9505913,40.2862565 76.6557,39.8644304 L77.5201565,33.8584304 C75.3034174,33.0929739 73.0601348,32.4021261 70.7895913,31.7959304 L67.9293522,37.5228652 Z M67.1395043,12.1996696 C67.1395043,12.1996696 66.5275696,12.3331043 65.1379826,12.5626696 C63.3057652,12.8654087 63.1364609,12.8811913 63.1364609,12.8811913 L63.1364609,8.17295217 C64.4815696,7.97853913 65.8152,7.75327826 67.1395043,7.49645217 L67.1395043,12.1996696 Z" id="Fill-1" fill="#E30334" mask="url(#mask-2)"></path>
            </g>
            <g id="Group-6" transform="translate(0.000000, 52.412609)">
                <mask id="mask-4" fill="white">
                    <use xlink:href="#path-3"></use>
                </mask>
                <g id="Clip-5"></g>
                <path d="M1.97992826,1.79634783 L1.66499348,3.55897826 L1.30558043,5.33236957 L2.69803696,5.33236957 L2.32786304,3.53673913 L2.02368913,1.79634783 L1.97992826,1.79634783 Z M3.19877609,7.82315217 L2.85012391,6.13656522 L1.16425435,6.13656522 L0.827080435,7.82315217 L-7.17391304e-05,7.82315217 L1.61047174,0.251086957 L2.41538478,0.251086957 L4.04745,7.82315217 L3.19877609,7.82315217 Z" id="Fill-4" fill="#1D1D1B" mask="url(#mask-4)"></path>
            </g>
            <polygon id="Fill-7" fill="#1D1D1B" points="7.99403478 53.447087 5.80742609 59.4523696 7.98327391 59.4523696 7.98327391 60.2357609 4.92646957 60.2357609 4.92646957 59.4523696 7.1346 53.447087 5.03479565 53.447087 5.03479565 52.6636957 7.99403478 52.6636957"></polygon>
            <path d="M11.6188696,58.4295848 L11.6188696,56.6891935 L9.88923913,56.6891935 L9.88923913,58.6914326 C9.88923913,59.2022152 10.226413,59.5071065 10.7816739,59.5071065 L10.7917174,59.5071065 C11.4775435,59.5071065 11.6188696,58.8650413 11.6188696,58.4295848 M12.4783043,54.7307152 L12.4783043,58.4733457 C12.4783043,59.6376717 11.913,60.3005413 10.7701957,60.3005413 C9.80171739,60.3005413 9.02980435,59.7137152 9.02980435,58.5823891 L9.02980435,55.9388022 L11.6188696,55.9388022 L11.6188696,54.6109109 C11.6188696,54.08865 11.4775435,53.3820196 10.7816739,53.3820196 C10.1718913,53.3820196 9.94376087,53.8059978 9.95452174,54.4695848 L9.09508696,54.2629761 C9.12736957,53.2292152 9.5951087,52.58715 10.7701957,52.58715 C12.173413,52.58715 12.4783043,53.6539109 12.4783043,54.7307152" id="Fill-9" fill="#1D1D1B"></path>
            <path d="M15.2569043,53.45835 L14.6040783,53.45835 L14.6040783,56.1234587 L15.3329478,56.1234587 C16.1271,56.1234587 16.3337087,55.6011978 16.3337087,54.8178065 C16.3337087,54.0021326 16.1271,53.45835 15.2569043,53.45835 Z M16.4972739,60.2355457 L15.4204696,56.9176109 L14.6040783,56.9176109 L14.6040783,60.2355457 L13.7446435,60.2355457 L13.7446435,52.6641978 L15.4089913,52.6641978 C16.6386,52.6641978 17.2039043,53.3715457 17.2039043,54.8178065 C17.2039043,55.6880022 17.0080565,56.3845891 16.2253826,56.7440022 L17.3782304,60.2355457 L16.4972739,60.2355457 Z" id="Fill-11" fill="#1D1D1B"></path>
            <path d="M20.0177283,56.6235522 L19.3871413,56.6235522 L19.3871413,59.462987 L20.0614891,59.462987 C21.0077283,59.462987 21.1490543,58.7448783 21.1490543,57.9184435 C21.1490543,57.0912913 20.8994022,56.6235522 20.0177283,56.6235522 Z M19.9739674,53.4469435 L19.3871413,53.4469435 L19.3871413,55.8731609 L19.9632065,55.8731609 C20.7573587,55.8731609 21.0837717,55.4384217 21.0837717,54.6550304 C21.0837717,53.8709217 20.7681196,53.4469435 19.9739674,53.4469435 Z M21.1167717,56.2648565 C21.7803587,56.4714652 21.9754891,57.1242913 21.9754891,58.0059652 C21.9754891,59.5720304 21.3449022,60.2356174 19.9854457,60.2356174 L18.5269891,60.2356174 L18.5269891,52.6635522 L20.1260543,52.6635522 C21.4317065,52.6635522 21.9109239,53.3924217 21.9109239,54.6657913 C21.9109239,55.4599435 21.7150761,55.8839217 21.1167717,56.2210957 L21.1167717,56.2648565 Z" id="Fill-13" fill="#1D1D1B"></path>
            <path d="M24.816287,54.2089565 L24.5013522,55.971587 L24.1419391,57.7449783 L25.5343957,57.7449783 L25.1642217,55.9493478 L24.8600478,54.2089565 L24.816287,54.2089565 Z M26.0351348,60.2357609 L25.6872,58.5491739 L24.000613,58.5491739 L23.6634391,60.2357609 L22.836287,60.2357609 L24.4468304,52.6636957 L25.2517435,52.6636957 L26.8838087,60.2357609 L26.0351348,60.2357609 Z" id="Fill-15" fill="#1D1D1B"></path>
            <polygon id="Fill-17" fill="#1D1D1B" points="28.8999652 55.7971891 29.8792043 52.6636239 30.7824 52.6636239 29.3024217 57.0375587 29.3024217 60.24645 28.4537478 60.24645 28.4537478 57.0375587 26.974487 52.6636239 27.8776826 52.6636239 28.4322261 54.4370152 28.8562043 55.7971891"></polygon>
            <path d="M34.9992261,54.3284022 L34.1397913,54.4804891 C34.1505522,53.8176196 33.9224217,53.3922065 33.3126391,53.3922065 C32.6167696,53.3922065 32.4747261,54.1002717 32.4747261,54.6218152 L32.4747261,58.4404891 C32.4747261,58.8759457 32.6167696,59.5172935 33.3018783,59.5172935 C33.8679,59.5172935 34.1290304,59.1801196 34.1397913,58.4297283 L35.0207478,58.5825326 C34.9884652,59.6700978 34.4446826,60.312163 33.3241174,60.312163 C32.181313,60.312163 31.6160087,59.6485761 31.6160087,58.48425 L31.6160087,54.7416196 C31.6160087,53.6648152 31.9201826,52.5987717 33.3241174,52.5987717 C34.4992043,52.5987717 34.9992261,53.2953587 34.9992261,54.3284022" id="Fill-19" fill="#1D1D1B"></path>
            <path d="M37.7854304,54.2089565 L37.4704957,55.971587 L37.1110826,57.7449783 L38.5035391,57.7449783 L38.1333652,55.9493478 L37.8291913,54.2089565 L37.7854304,54.2089565 Z M39.0042783,60.2357609 L38.6556261,58.5491739 L36.9697565,58.5491739 L36.6325826,60.2357609 L35.8054304,60.2357609 L37.4159739,52.6636957 L38.220887,52.6636957 L39.8522348,60.2357609 L39.0042783,60.2357609 Z" id="Fill-21" fill="#1D1D1B"></path>
            <polygon id="Fill-23" fill="#1D1D1B" points="41.7531065 55.0570565 41.7531065 60.2359043 40.8936717 60.2359043 40.8936717 52.6638391 41.7093457 52.6638391 43.2761283 56.5040348 43.7983891 57.8857304 43.84215 57.8749696 43.84215 52.6638391 44.7008674 52.6638391 44.7008674 60.2359043 43.8966717 60.2359043 42.3298891 56.4279913 41.7853891 55.0570565"></polygon>
            <polygon id="Fill-25" fill="#1D1D1B" points="49.2023543 55.0570565 49.2023543 60.2359043 48.3429196 60.2359043 48.3429196 52.6638391 49.1585935 52.6638391 50.7253761 56.5040348 51.247637 57.8857304 51.2913978 57.8749696 51.2913978 52.6638391 52.1501152 52.6638391 52.1501152 60.2359043 51.3459196 60.2359043 49.779137 56.4279913 49.234637 55.0570565"></polygon>
            <path d="M55.1881239,54.2089565 L54.8731891,55.971587 L54.5137761,57.7449783 L55.9062326,57.7449783 L55.5360587,55.9493478 L55.2318848,54.2089565 L55.1881239,54.2089565 Z M56.4069717,60.2357609 L56.0583196,58.5491739 L54.37245,58.5491739 L54.0352761,60.2357609 L53.2081239,60.2357609 L54.8186674,52.6636957 L55.6235804,52.6636957 L57.2556457,60.2357609 L56.4069717,60.2357609 Z" id="Fill-27" fill="#1D1D1B"></path>
            <path d="M59.8251978,53.45835 L59.1723717,53.45835 L59.1723717,56.1234587 L59.9005239,56.1234587 C60.6953935,56.1234587 60.9020022,55.6011978 60.9020022,54.8178065 C60.9020022,54.0021326 60.6953935,53.45835 59.8251978,53.45835 Z M61.0655674,60.2355457 L59.988763,56.9176109 L59.1723717,56.9176109 L59.1723717,60.2355457 L58.312937,60.2355457 L58.312937,52.6641978 L59.9772848,52.6641978 C61.2068935,52.6641978 61.7721978,53.3715457 61.7721978,54.8178065 C61.7721978,55.6880022 61.57635,56.3845891 60.7936761,56.7440022 L61.9465239,60.2355457 L61.0655674,60.2355457 Z" id="Fill-29" fill="#1D1D1B"></path>
            <mask id="mask-6" fill="white">
                <use xlink:href="#path-5"></use>
            </mask>
            <g id="Clip-32"></g>
            <path d="M65.4791739,51.8372609 L66.2188043,51.8372609 L66.2188043,50.9670652 L65.4791739,50.9670652 L65.4791739,51.8372609 Z M65.4031304,60.2357609 L66.2733261,60.2357609 L66.2733261,52.6636957 L65.4031304,52.6636957 L65.4031304,60.2357609 Z" id="Fill-31" fill="#1D1D1B" mask="url(#mask-6)"></path>
            <path d="M69.2314891,60.3120913 C68.0018804,60.3120913 67.4580978,59.5717435 67.4580978,58.5824609 L68.3175326,58.4081348 C68.3175326,58.9741565 68.5241413,59.4849391 69.2314891,59.4849391 C70.1124457,59.4849391 70.1669674,58.8873522 70.1669674,58.179287 C70.1669674,57.2875696 70.0478804,57.1017652 69.1446848,56.7222652 C67.7192283,56.1124826 67.5126196,55.5034174 67.5126196,54.5894609 C67.5126196,53.4251348 68.100163,52.5987 69.2967717,52.5987 C70.6131848,52.5987 71.0156413,53.5126565 71.0156413,54.2630478 L70.1669674,54.4804174 C70.1669674,53.7953087 69.9165978,53.4143739 69.2530109,53.4143739 C68.5133804,53.4143739 68.3720543,54.0564391 68.3720543,54.5787 C68.3720543,55.1985261 68.437337,55.5249391 69.5579022,55.9596783 C70.862837,56.4826565 71.0156413,57.0587217 71.0156413,58.1692435 C71.0156413,59.4627 70.558663,60.3120913 69.2314891,60.3120913" id="Fill-33" fill="#1D1D1B" mask="url(#mask-6)"></path>
            <polygon id="Fill-34" fill="#1D1D1B" mask="url(#mask-6)" points="74.031913 53.447087 74.031913 60.2357609 73.1617174 60.2357609 73.1617174 53.447087 71.8783043 53.447087 71.8783043 52.6636957 75.3153261 52.6636957 75.3153261 53.447087"></polygon>
            <polygon id="Fill-35" fill="#1D1D1B" mask="url(#mask-6)" points="76.3297891 60.2356891 76.3297891 52.6636239 79.5723978 52.6636239 79.5723978 53.4584935 77.1892239 53.4584935 77.1892239 55.993037 79.2567457 55.993037 79.2567457 56.7864717 77.1892239 56.7864717 77.1892239 59.4522978 79.5723978 59.4522978 79.5723978 60.2356891"></polygon>
            <polygon id="Fill-36" fill="#1D1D1B" mask="url(#mask-6)" points="83.2780826 60.2356891 83.2780826 56.7434283 81.5154522 56.7434283 81.5154522 60.2356891 80.6560174 60.2356891 80.6560174 52.6636239 81.5154522 52.6636239 81.5154522 55.993037 83.2780826 55.993037 83.2780826 52.6636239 84.1375174 52.6636239 84.1375174 60.2356891"></polygon>
            <path d="M87.0976174,60.3120913 C85.8680087,60.3120913 85.3242261,59.5717435 85.3242261,58.5824609 L86.1836609,58.4081348 C86.1836609,58.9741565 86.3902696,59.4849391 87.0976174,59.4849391 C87.9785739,59.4849391 88.0330957,58.8873522 88.0330957,58.179287 C88.0330957,57.2875696 87.9132913,57.1017652 87.010813,56.7222652 C85.5860739,56.1124826 85.3787478,55.5034174 85.3787478,54.5894609 C85.3787478,53.4251348 85.9662913,52.5987 87.1629,52.5987 C88.479313,52.5987 88.8817696,53.5126565 88.8817696,54.2630478 L88.0330957,54.4804174 C88.0330957,53.7953087 87.7827261,53.4143739 87.1191391,53.4143739 C86.3795087,53.4143739 86.2381826,54.0564391 86.2381826,54.5787 C86.2381826,55.1985261 86.3034652,55.5249391 87.4240304,55.9596783 C88.7289652,56.4826565 88.8817696,57.0587217 88.8817696,58.1692435 C88.8817696,59.4627 88.4247913,60.3120913 87.0976174,60.3120913" id="Fill-37" fill="#1D1D1B" mask="url(#mask-6)"></path>
            <path d="M91.6843304,54.2089565 L91.3693957,55.971587 L91.0099826,57.7449783 L92.4024391,57.7449783 L92.0322652,55.9493478 L91.7280913,54.2089565 L91.6843304,54.2089565 Z M92.9024609,60.2357609 L92.5552435,58.5491739 L90.8679391,58.5491739 L90.5314826,60.2357609 L89.7043304,60.2357609 L91.3141565,52.6636957 L92.1190696,52.6636957 L93.7518522,60.2357609 L92.9024609,60.2357609 Z" id="Fill-38" fill="#1D1D1B" mask="url(#mask-6)"></path>
            <polygon id="Fill-39" fill="#1D1D1B" mask="url(#mask-6)" points="94.8089283 60.2356891 94.8089283 52.6636239 95.668363 52.6636239 95.668363 59.4522978 97.8764935 59.4522978 97.8764935 60.2356891"></polygon>
            <path d="M102.204228,54.3284022 L101.345511,54.4804891 C101.355554,53.8176196 101.127424,53.3922065 100.517641,53.3922065 C99.8217717,53.3922065 99.6797283,54.1002717 99.6797283,54.6218152 L99.6797283,58.4404891 C99.6797283,58.8759457 99.8217717,59.5172935 100.507598,59.5172935 C101.072902,59.5172935 101.333315,59.1801196 101.345511,58.4297283 L102.22575,58.5825326 C102.19275,59.5832935 101.736489,60.2031196 100.79025,60.2906413 L100.648924,60.8337065 C101.312511,60.8882283 101.48612,61.3236848 101.48612,61.6500978 C101.48612,61.9980326 101.246511,62.4550109 100.594402,62.4550109 C100.474598,62.4550109 100.039141,62.4550109 99.7242065,62.292163 L99.8655326,61.9004674 C100.115902,62.0202717 100.311033,62.0303152 100.485359,62.0303152 C100.702728,62.0303152 100.899293,61.9112283 100.899293,61.6608587 C100.899293,61.38825 100.75725,61.2146413 100.333272,61.2476413 L100.158946,61.0955543 L100.376315,60.3006848 C99.3317935,60.246163 98.8210109,59.5832935 98.8210109,58.48425 L98.8210109,54.7416196 C98.8210109,53.6648152 99.1251848,52.5987717 100.528402,52.5987717 C101.704207,52.5987717 102.204228,53.2953587 102.204228,54.3284022" id="Fill-40" fill="#1D1D1B" mask="url(#mask-6)"></path>
            <polygon id="Fill-41" fill="#1D1D1B" mask="url(#mask-6)" points="103.37537 60.2357609 104.245565 60.2357609 104.245565 52.6636957 103.37537 52.6636957"></polygon>
            <polygon id="Fill-42" fill="#1D1D1B" mask="url(#mask-6)" points="105.572596 60.2356891 105.572596 52.6636239 106.43203 52.6636239 106.43203 59.4522978 108.640878 59.4522978 108.640878 60.2356891"></polygon>
            <path d="M111.434328,54.2089565 L111.119393,55.971587 L110.760698,57.7449783 L112.152437,57.7449783 L111.78298,55.9493478 L111.478807,54.2089565 L111.434328,54.2089565 Z M112.653176,60.2357609 L112.305241,58.5491739 L110.618654,58.5491739 L110.282198,60.2357609 L109.454328,60.2357609 L111.064872,52.6636957 L111.869785,52.6636957 L113.502567,60.2357609 L112.653176,60.2357609 Z" id="Fill-43" fill="#1D1D1B" mask="url(#mask-6)"></path>
            <path d="M116.071402,53.45835 L115.419293,53.45835 L115.419293,56.1234587 L116.147446,56.1234587 C116.942315,56.1234587 117.148924,55.6011978 117.148924,54.8178065 C117.148924,54.0021326 116.942315,53.45835 116.071402,53.45835 Z M117.311772,60.2355457 L116.234967,56.9176109 L115.419293,56.9176109 L115.419293,60.2355457 L114.559859,60.2355457 L114.559859,52.6641978 L116.224207,52.6641978 C117.453815,52.6641978 118.01912,53.3715457 118.01912,54.8178065 C118.01912,55.6880022 117.822554,56.3845891 117.03988,56.7440022 L118.192728,60.2355457 L117.311772,60.2355457 Z" id="Fill-44" fill="#1D1D1B" mask="url(#mask-6)"></path>
            <polygon id="Fill-45" fill="#1D1D1B" mask="url(#mask-6)" points="119.358848 60.2357609 120.229043 60.2357609 120.229043 52.6636957 119.358848 52.6636957"></polygon>
            <polygon id="Fill-46" fill="#1D1D1B" mask="url(#mask-6)" points="125.992278 60.2462348 125.0568 60.2462348 123.642822 52.6641261 124.523778 52.6641261 125.0898 55.8622565 125.513778 58.4950826 125.546778 58.4950826 125.981517 55.8400174 126.557583 52.6641261 127.439974 52.6641261"></polygon>
            <path d="M131.002826,58.4295848 L131.002826,56.6891935 L129.273196,56.6891935 L129.273196,58.6914326 C129.273196,59.2022152 129.611087,59.5071065 130.16563,59.5071065 L130.176391,59.5071065 C130.862217,59.5071065 131.002826,58.8650413 131.002826,58.4295848 M131.862261,54.7307152 L131.862261,58.4733457 C131.862261,59.6376717 131.296239,60.3005413 130.154152,60.3005413 C129.185674,60.3005413 128.413761,59.7137152 128.413761,58.5823891 L128.413761,55.9388022 L131.002826,55.9388022 L131.002826,54.6109109 C131.002826,54.08865 130.862217,53.3820196 130.16563,53.3820196 C129.555848,53.3820196 129.327,53.8059978 129.338478,54.4695848 L128.478326,54.2629761 C128.511326,53.2292152 128.979783,52.58715 130.154152,52.58715 C131.55737,52.58715 131.862261,53.6539109 131.862261,54.7307152" id="Fill-47" fill="#1D1D1B" mask="url(#mask-6)"></path>
            <path d="M13.4984348,64.7503043 L14.2380652,64.7503043 L14.2380652,63.8801087 L13.4984348,63.8801087 L13.4984348,64.7503043 Z M13.4223913,73.1495217 L14.292587,73.1495217 L14.292587,65.5774565 L13.4223913,65.5774565 L13.4223913,73.1495217 Z" id="Fill-48" fill="#1D1D1B" mask="url(#mask-6)"></path>
            <polygon id="Fill-49" fill="#1D1D1B" mask="url(#mask-6)" points="18.3528065 73.1602826 17.2975239 70.158 16.2530022 73.1602826 15.3498065 73.1602826 16.8627848 69.1780435 15.4696109 65.5774565 16.3728065 65.5774565 17.2975239 68.2432826 18.2330022 65.5774565 19.1361978 65.5774565 17.7107413 69.1780435 19.2560022 73.1602826"></polygon>
            <path d="M21.8206761,66.3720391 L21.16785,66.3720391 L21.16785,69.0371478 L21.8967196,69.0371478 C22.6908717,69.0371478 22.8974804,68.5156043 22.8974804,67.7314957 C22.8974804,66.9158217 22.6908717,66.3720391 21.8206761,66.3720391 Z M23.0610457,73.1492348 L21.9842413,69.8313 L21.16785,69.8313 L21.16785,73.1492348 L20.3084152,73.1492348 L20.3084152,65.577887 L21.972763,65.577887 C23.2023717,65.577887 23.7683935,66.2852348 23.7683935,67.7314957 C23.7683935,68.6024087 23.5725457,69.2989957 22.7891543,69.6576913 L23.9420022,73.1492348 L23.0610457,73.1492348 Z" id="Fill-50" fill="#1D1D1B" mask="url(#mask-6)"></path>
            <path d="M26.8543239,67.1227174 L26.5393891,68.8853478 L26.1799761,70.6587391 L27.5724326,70.6587391 L27.2022587,68.8631087 L26.8980848,67.1227174 L26.8543239,67.1227174 Z M28.0731717,73.1495217 L27.7245196,71.4629348 L26.03865,71.4629348 L25.7014761,73.1495217 L24.8743239,73.1495217 L26.48415,65.5774565 L27.2897804,65.5774565 L28.9211283,73.1495217 L28.0731717,73.1495217 Z" id="Fill-51" fill="#1D1D1B" mask="url(#mask-6)"></path>
            <path d="M33.1983587,67.242163 L32.3389239,67.39425 C32.3496848,66.7313804 32.120837,66.3066848 31.5117717,66.3066848 C30.8159022,66.3066848 30.6738587,67.0140326 30.6738587,67.5355761 L30.6738587,71.3549674 C30.6738587,71.7897065 30.8159022,72.4310543 31.5010109,72.4310543 C32.0663152,72.4310543 32.328163,72.0945978 32.3389239,71.3434891 L33.2198804,71.4962935 C33.1868804,72.5838587 32.6438152,73.2259239 31.5225326,73.2259239 C30.3804457,73.2259239 29.8151413,72.562337 29.8151413,71.3980109 L29.8151413,67.6560978 C29.8151413,66.5785761 30.1193152,65.5125326 31.5225326,65.5125326 C32.6976196,65.5125326 33.1983587,66.2091196 33.1983587,67.242163" id="Fill-52" fill="#1D1D1B" mask="url(#mask-6)"></path>
            <path d="M35.9842043,67.1227174 L35.6692696,68.8853478 L35.3098565,70.6587391 L36.702313,70.6587391 L36.3321391,68.8631087 L36.0279652,67.1227174 L35.9842043,67.1227174 Z M37.2030522,73.1495217 L36.8544,71.4629348 L35.1685304,71.4629348 L34.8313565,73.1495217 L34.0042043,73.1495217 L35.6147478,65.5774565 L36.4196609,65.5774565 L38.0517261,73.1495217 L37.2030522,73.1495217 Z" id="Fill-53" fill="#1D1D1B" mask="url(#mask-6)"></path>
            <polygon id="Fill-54" fill="#1D1D1B" mask="url(#mask-6)" points="40.3407783 66.3608478 40.3407783 73.1495217 39.4705826 73.1495217 39.4705826 66.3608478 38.1871696 66.3608478 38.1871696 65.5774565 41.6249087 65.5774565 41.6249087 66.3608478"></polygon>
            <path d="M45.9138326,67.242163 L45.0543978,67.39425 C45.0651587,66.7313804 44.8370283,66.3066848 44.2272457,66.3066848 C43.5313761,66.3066848 43.3893326,67.0140326 43.3893326,67.5355761 L43.3893326,71.3549674 C43.3893326,71.7897065 43.5313761,72.4310543 44.2164848,72.4310543 C44.7825065,72.4310543 45.043637,72.0945978 45.0543978,71.3434891 L45.9353543,71.4962935 C45.9030717,72.4970543 45.4460935,73.1168804 44.499137,73.2044022 L44.3585283,73.7474674 C45.0221152,73.8019891 45.1957239,74.2374457 45.1957239,74.5638587 C45.1957239,74.9117935 44.9568326,75.3694891 44.3032891,75.3694891 C44.1834848,75.3694891 43.7487457,75.3694891 43.4330935,75.2059239 L43.575137,74.8142283 C43.8247891,74.9340326 44.020637,74.9440761 44.194963,74.9440761 C44.4123326,74.9440761 44.6081804,74.8249891 44.6081804,74.5746196 C44.6081804,74.3027283 44.4668543,74.1284022 44.0428761,74.1614022 L43.86855,74.0093152 L44.0859196,73.2144457 C43.0413978,73.1606413 42.5306152,72.4970543 42.5306152,71.3980109 L42.5306152,67.6560978 C42.5306152,66.5785761 42.8347891,65.5125326 44.2387239,65.5125326 C45.4130935,65.5125326 45.9138326,66.2091196 45.9138326,67.242163" id="Fill-55" fill="#1D1D1B" mask="url(#mask-6)"></path>
            <polygon id="Fill-56" fill="#1D1D1B" mask="url(#mask-6)" points="47.0845435 73.1495217 47.9547391 73.1495217 47.9547391 65.5774565 47.0845435 65.5774565"></polygon>
            <polygon id="Fill-57" fill="#1D1D1B" mask="url(#mask-6)" points="49.2822 73.14945 49.2822 65.5773848 50.1416348 65.5773848 50.1416348 72.3660587 52.3504826 72.3660587 52.3504826 73.14945"></polygon>
            <path d="M55.1442913,67.1227174 L54.8293565,68.8853478 L54.4699435,70.6587391 L55.8624,70.6587391 L55.4922261,68.8631087 L55.1880522,67.1227174 L55.1442913,67.1227174 Z M56.3631391,73.1495217 L56.014487,71.4629348 L54.3286174,71.4629348 L53.9914435,73.1495217 L53.1642913,73.1495217 L54.7748348,65.5774565 L55.5797478,65.5774565 L57.2110957,73.1495217 L56.3631391,73.1495217 Z" id="Fill-58" fill="#1D1D1B" mask="url(#mask-6)"></path>
            <path d="M59.7810783,66.3720391 L59.1282522,66.3720391 L59.1282522,69.0371478 L59.8571217,69.0371478 C60.6519913,69.0371478 60.8578826,68.5156043 60.8578826,67.7314957 C60.8578826,66.9158217 60.6519913,66.3720391 59.7810783,66.3720391 Z M61.0214478,73.1492348 L59.9446435,69.8313 L59.1282522,69.8313 L59.1282522,73.1492348 L58.2688174,73.1492348 L58.2688174,65.577887 L59.9331652,65.577887 C61.1627739,65.577887 61.7287957,66.2852348 61.7287957,67.7314957 C61.7287957,68.6024087 61.5329478,69.2989957 60.7495565,69.6576913 L61.9024043,73.1492348 L61.0214478,73.1492348 Z" id="Fill-59" fill="#1D1D1B" mask="url(#mask-6)"></path>
            <polygon id="Fill-60" fill="#1D1D1B" mask="url(#mask-6)" points="63.0680217 73.1495217 63.9382174 73.1495217 63.9382174 65.5774565 63.0680217 65.5774565"></polygon>
            <path d="M69.2230957,67.1227174 L68.9081609,68.8853478 L68.5494652,70.6587391 L69.9419217,70.6587391 L69.5710304,68.8631087 L69.2668565,67.1227174 L69.2230957,67.1227174 Z M70.4419435,73.1495217 L70.0940087,71.4629348 L68.4074217,71.4629348 L68.0709652,73.1495217 L67.2430957,73.1495217 L68.8536391,65.5774565 L69.6585522,65.5774565 L71.2906174,73.1495217 L70.4419435,73.1495217 Z" id="Fill-61" fill="#1D1D1B" mask="url(#mask-6)"></path>
            <path d="M73.8861391,73.2257804 C72.6572478,73.2257804 72.1134652,72.48615 72.1134652,71.49615 L72.9736174,71.3218239 C72.9736174,71.8878457 73.1795087,72.3986283 73.8861391,72.3986283 C74.767813,72.3986283 74.8223348,71.8010413 74.8223348,71.0929761 C74.8223348,70.2012587 74.7032478,70.0161717 73.7993348,69.6359543 C72.3745957,69.0261717 72.167987,68.4171065 72.167987,67.50315 C72.167987,66.3388239 72.7555304,65.5123891 73.9521391,65.5123891 C75.2685522,65.5123891 75.6702913,66.4263457 75.6702913,67.1774543 L74.8223348,67.3941065 C74.8223348,66.7097152 74.5719652,66.328063 73.9083783,66.328063 C73.1687478,66.328063 73.0274217,66.9701283 73.0274217,67.4923891 C73.0274217,68.1122152 73.0927043,68.4393457 74.2132696,68.8740848 C75.5182043,69.3963457 75.6702913,69.9731283 75.6702913,71.0829326 C75.6702913,72.3771065 75.2140304,73.2257804 73.8861391,73.2257804" id="Fill-62" fill="#1D1D1B" mask="url(#mask-6)"></path>
            <path d="M78.5225674,73.2257804 C77.2936761,73.2257804 76.7491761,72.48615 76.7491761,71.49615 L77.6093283,71.3218239 C77.6093283,71.8878457 77.8152196,72.3986283 78.5225674,72.3986283 C79.4035239,72.3986283 79.4580457,71.8010413 79.4580457,71.0929761 C79.4580457,70.2012587 79.3389587,70.0161717 78.435763,69.6359543 C77.0110239,69.0261717 76.8036978,68.4171065 76.8036978,67.50315 C76.8036978,66.3388239 77.3912413,65.5123891 78.58785,65.5123891 C79.904263,65.5123891 80.3067196,66.4263457 80.3067196,67.1774543 L79.4580457,67.3941065 C79.4580457,66.7097152 79.2076761,66.328063 78.5448065,66.328063 C77.8044587,66.328063 77.6631326,66.9701283 77.6631326,67.4923891 C77.6631326,68.1122152 77.7284152,68.4393457 78.8489804,68.8740848 C80.1539152,69.3963457 80.3067196,69.9731283 80.3067196,71.0829326 C80.3067196,72.3771065 79.8497413,73.2257804 78.5225674,73.2257804" id="Fill-63" fill="#1D1D1B" mask="url(#mask-6)"></path>
            <path d="M84.0830674,67.4705804 C84.0830674,66.9597978 83.996263,66.2954935 83.2021109,66.2954935 C82.3426761,66.2954935 82.320437,67.2524935 82.320437,67.6987109 L82.320437,71.3760587 C82.320437,71.8115152 82.461763,72.4428196 83.19135,72.4428196 C83.9195022,72.4428196 84.0830674,71.8222761 84.0830674,71.2239717 L84.0830674,67.4705804 Z M84.9425022,71.1156457 C84.9425022,72.4636239 84.4640022,73.2254935 83.19135,73.2254935 C81.9402196,73.2254935 81.4610022,72.485863 81.4610022,71.3652978 L81.4610022,67.6341457 C81.4610022,66.5566239 81.7658935,65.5128196 83.2021109,65.5128196 C84.7143717,65.5128196 84.9425022,66.404537 84.9425022,67.6119065 L84.9425022,71.1156457 Z" id="Fill-64" fill="#1D1D1B" mask="url(#mask-6)"></path>
            <path d="M87.8647957,73.2257804 C86.6359043,73.2257804 86.0914043,72.48615 86.0914043,71.49615 L86.9515565,71.3218239 C86.9515565,71.8878457 87.1574478,72.3986283 87.8647957,72.3986283 C88.7457522,72.3986283 88.8002739,71.8010413 88.8002739,71.0929761 C88.8002739,70.2012587 88.681187,70.0161717 87.7779913,69.6359543 C86.3532522,69.0261717 86.1459261,68.4171065 86.1459261,67.50315 C86.1459261,66.3388239 86.7334696,65.5123891 87.9300783,65.5123891 C89.2464913,65.5123891 89.6489478,66.4263457 89.6489478,67.1774543 L88.8002739,67.3941065 C88.8002739,66.7097152 88.5499043,66.328063 87.8870348,66.328063 C87.146687,66.328063 87.0053609,66.9701283 87.0053609,67.4923891 C87.0053609,68.1122152 87.0706435,68.4393457 88.1912087,68.8740848 C89.4961435,69.3963457 89.6489478,69.9731283 89.6489478,71.0829326 C89.6489478,72.3771065 89.1919696,73.2257804 87.8647957,73.2257804" id="Fill-65" fill="#1D1D1B" mask="url(#mask-6)"></path>
            <path d="M90.9293478,64.7503043 L91.6682609,64.7503043 L91.6682609,63.8801087 L90.9293478,63.8801087 L90.9293478,64.7503043 Z M90.852587,73.1495217 L91.7227826,73.1495217 L91.7227826,65.5774565 L90.852587,65.5774565 L90.852587,73.1495217 Z" id="Fill-66" fill="#1D1D1B" mask="url(#mask-6)"></path>
            <path d="M94.7815957,67.1227174 L94.4666609,68.8853478 L94.1079652,70.6587391 L95.5004217,70.6587391 L95.1302478,68.8631087 L94.8260739,67.1227174 L94.7815957,67.1227174 Z M96.0004435,73.1495217 L95.6525087,71.4629348 L93.9659217,71.4629348 L93.6294652,73.1495217 L92.8015957,73.1495217 L94.4121391,65.5774565 L95.2170522,65.5774565 L96.8498348,73.1495217 L96.0004435,73.1495217 Z" id="Fill-67" fill="#1D1D1B" mask="url(#mask-6)"></path>
            <path d="M99.4453565,73.2257804 C98.2157478,73.2257804 97.6719652,72.48615 97.6719652,71.49615 L98.5314,71.3218239 C98.5314,71.8878457 98.7380087,72.3986283 99.4453565,72.3986283 C100.326313,72.3986283 100.380835,71.8010413 100.380835,71.0929761 C100.380835,70.2012587 100.26103,70.0161717 99.3585522,69.6359543 C97.933813,69.0261717 97.726487,68.4171065 97.726487,67.50315 C97.726487,66.3388239 98.3140304,65.5123891 99.5106391,65.5123891 C100.827052,65.5123891 101.229509,66.4263457 101.229509,67.1774543 L100.380835,67.3941065 C100.380835,66.7097152 100.130465,66.328063 99.4668783,66.328063 C98.7272478,66.328063 98.5859217,66.9701283 98.5859217,67.4923891 C98.5859217,68.1122152 98.6512043,68.4393457 99.7717696,68.8740848 C101.076704,69.3963457 101.229509,69.9731283 101.229509,71.0829326 C101.229509,72.3771065 100.77253,73.2257804 99.4453565,73.2257804" id="Fill-68" fill="#1D1D1B" mask="url(#mask-6)"></path>
            <path d="M102.508761,64.7503043 L103.248391,64.7503043 L103.248391,63.8801087 L102.508761,63.8801087 L102.508761,64.7503043 Z M102.432717,73.1495217 L103.30363,73.1495217 L103.30363,65.5774565 L102.432717,65.5774565 L102.432717,73.1495217 Z" id="Fill-69" fill="#1D1D1B" mask="url(#mask-6)"></path>
            <polygon id="Fill-70" fill="#1D1D1B" mask="url(#mask-6)" points="106.307491 68.71095 107.287448 65.5773848 108.189926 65.5773848 106.710665 69.9513196 106.710665 73.1602109 105.861991 73.1602109 105.861991 69.9513196 104.382013 65.5773848 105.285209 65.5773848 105.841187 67.3507761 106.264448 68.71095"></polygon>
            <path d="M110.276961,67.1227174 L109.962026,68.8853478 L109.602613,70.6587391 L110.99507,70.6587391 L110.624896,68.8631087 L110.321439,67.1227174 L110.276961,67.1227174 Z M111.495809,73.1495217 L111.147874,71.4629348 L109.461287,71.4629348 L109.124113,73.1495217 L108.296961,73.1495217 L109.906787,65.5774565 L110.712417,65.5774565 L112.344483,73.1495217 L111.495809,73.1495217 Z" id="Fill-71" fill="#1D1D1B" mask="url(#mask-6)"></path>
            <path d="M114.940722,73.2257804 C113.711113,73.2257804 113.166613,72.48615 113.166613,71.49615 L114.026765,71.3218239 C114.026765,71.8878457 114.233374,72.3986283 114.940722,72.3986283 C115.821678,72.3986283 115.8762,71.8010413 115.8762,71.0929761 C115.8762,70.2012587 115.756396,70.0161717 114.853917,69.6359543 C113.428461,69.0261717 113.221852,68.4171065 113.221852,67.50315 C113.221852,66.3388239 113.808678,65.5123891 115.006004,65.5123891 C116.3217,65.5123891 116.724157,66.4263457 116.724157,67.1774543 L115.8762,67.3941065 C115.8762,66.7097152 115.625113,66.328063 114.962243,66.328063 C114.222613,66.328063 114.081287,66.9701283 114.081287,67.4923891 C114.081287,68.1122152 114.14657,68.4393457 115.267135,68.8740848 C116.57207,69.3963457 116.724157,69.9731283 116.724157,71.0829326 C116.724157,72.3771065 116.267896,73.2257804 114.940722,73.2257804" id="Fill-72" fill="#1D1D1B" mask="url(#mask-6)"></path>
            <polygon id="Fill-73" fill="#1D1D1B" mask="url(#mask-6)" points="117.927652 73.1495217 118.797848 73.1495217 118.797848 65.5774565 117.927652 65.5774565"></polygon>
        </g>
    </g>
</svg>