<svg width="163" height="59" viewBox="0 0 163 59" fill="none" xmlns="http://www.w3.org/2000/svg">
    <path d="M67.06 18H63.66L58.21 32H61.12L62.34 28.74H68.31L69.53 32H72.51L67.06 18ZM65.33 20.76L67.35 26.17H63.3L65.33 20.76ZM77.9522 22.05C75.2822 22.05 73.2622 24.24 73.2622 27.15C73.2622 30.06 75.2822 32.25 77.9522 32.25C79.2522 32.25 80.1722 31.74 80.8022 30.99V36H83.4022V22.31H80.8522V23.38C80.2122 22.59 79.2822 22.05 77.9522 22.05ZM78.4322 24.48C79.9222 24.48 80.9322 25.62 80.9322 27.15C80.9322 28.68 79.9222 29.82 78.4322 29.82C76.9022 29.82 75.9322 28.63 75.9322 27.15C75.9322 25.67 76.9022 24.48 78.4322 24.48ZM91.4073 22.05C90.2173 22.05 89.2873 22.46 88.6773 23.37V22.31H86.1473V32H88.7573V26.72C88.7573 25.28 89.5873 24.54 90.7973 24.54C91.3273 24.54 91.9473 24.66 92.3773 24.85L92.7673 22.26C92.4073 22.13 91.9673 22.05 91.4073 22.05ZM98.8438 22.05C95.8338 22.05 93.6138 24.23 93.6138 27.15C93.6138 30.07 95.8338 32.25 98.8438 32.25C101.864 32.25 104.094 30.07 104.094 27.15C104.094 24.23 101.864 22.05 98.8438 22.05ZM98.8438 24.48C100.314 24.48 101.424 25.58 101.424 27.15C101.424 28.72 100.314 29.82 98.8438 29.82C97.3738 29.82 96.2738 28.72 96.2738 27.15C96.2738 25.58 97.3738 24.48 98.8438 24.48ZM108.835 17.6H106.225V32H108.835V28.08H109.715L112.505 32H115.715L111.865 26.87L115.685 22.31H112.485L109.755 25.76H108.835V17.6ZM119.793 22.31H117.183V32H119.793V22.31ZM118.473 17.46C117.533 17.46 116.813 18.2 116.813 19.14C116.813 20.08 117.533 20.8 118.473 20.8C119.413 20.8 120.143 20.08 120.143 19.14C120.143 18.2 119.413 17.46 118.473 17.46ZM134.414 22.05C133.144 22.05 131.874 22.48 131.124 23.71C130.474 22.68 129.324 22.05 127.924 22.05C126.824 22.05 125.764 22.42 125.074 23.45V22.31H122.534V32H125.144V26.69C125.144 25.23 126.074 24.5 127.194 24.5C128.384 24.5 129.084 25.27 129.084 26.67V32H131.694V26.69C131.694 25.23 132.624 24.5 133.744 24.5C134.924 24.5 135.634 25.27 135.634 26.67V32H138.234V25.83C138.234 23.58 136.694 22.05 134.414 22.05ZM150.342 22.31H147.482L144.902 27.29L142.242 22.31H139.282L143.462 29.94L140.072 36.04H142.932L150.342 22.31ZM160.941 22.31H158.391V23.38C157.751 22.59 156.821 22.05 155.491 22.05C152.821 22.05 150.801 24.24 150.801 27.15C150.801 30.06 152.821 32.25 155.491 32.25C156.821 32.25 157.761 31.71 158.391 30.93V32H160.941V22.31ZM155.971 24.48C157.461 24.48 158.471 25.62 158.471 27.15C158.471 28.68 157.461 29.82 155.971 29.82C154.441 29.82 153.471 28.63 153.471 27.15C153.471 25.67 154.441 24.48 155.971 24.48Z" fill="#13823A"/>
    <path d="M23.3573 59C18.5146 59 14.2762 57.8667 10.7596 55.6252C7.89768 53.8035 5.50571 51.243 3.65089 48.0277C0.511964 42.5626 0.00839286 37.0051 0 36.9464V36.9212V0H47V36.9464C46.9916 37.0051 46.5468 42.5206 43.4582 47.9606C41.637 51.1675 39.2702 53.7196 36.425 55.5497C32.8664 57.8415 28.5609 59 23.6091 59C23.5252 59 23.4412 59 23.3573 59ZM0.621071 36.9044C0.64625 37.1982 1.19179 42.5122 4.20482 47.7255C8.28375 54.7857 14.7211 58.3704 23.3489 58.3704C23.4329 58.3704 23.5168 58.3704 23.6007 58.3704C32.3629 58.3704 38.8505 54.7689 42.8959 47.6668C45.8586 42.4619 46.3454 37.1814 46.3705 36.9044V0.629624H0.621071V36.9044Z" fill="#13823A"/>
    <path d="M14.184 40.1701L14.1337 39.8846C14.1253 39.8259 13.1937 34.2852 10.1638 34.2852H9.82812L9.8533 33.9494C10.0967 30.0961 11.2969 26.6961 13.4203 23.8418C15.1156 21.5584 17.3985 19.6191 20.2017 18.0745C24.9605 15.4552 29.6605 14.8844 29.7108 14.876L30.0549 14.834L30.0633 15.1782C30.0633 15.3377 30.1556 19.1322 30.1556 19.9465V20.1816L29.9374 20.2488C26.7313 21.2226 26.3369 22.1628 26.2949 22.3727C26.253 22.9855 27.0838 23.5984 27.7301 24.0181C27.898 24.1021 28.2001 24.2196 28.5778 24.3623C29.8115 24.8324 31.8678 25.6215 33.7226 26.9312L33.7394 26.948C35.7621 28.5934 36.5846 30.3731 36.9119 31.582C37.2728 32.9 37.1553 33.8235 37.1469 33.8654L37.1385 33.9494L33.5212 38.659L33.3869 38.6674L14.184 40.1701ZM10.4996 33.6723C13.4035 33.983 14.4694 38.3232 14.7044 39.4985L33.1939 38.0461L36.5426 33.6975C36.5594 33.4625 36.5846 32.7069 36.3076 31.7163C35.9971 30.6082 35.2333 28.9711 33.3617 27.4433C31.574 26.184 29.5681 25.4117 28.3596 24.9499C27.9399 24.7904 27.6378 24.6729 27.4363 24.5722L27.4112 24.5554C26.5551 24.0013 25.5899 23.2542 25.6738 22.2971V22.2719C25.8417 21.3569 27.2097 20.4502 29.5346 19.7199C29.5262 18.8048 29.4674 16.4458 29.4506 15.556C28.3008 15.7406 24.4149 16.4794 20.4955 18.6369C14.3771 22.0033 11.0115 27.0571 10.4996 33.6723Z" fill="#13823A"/>
    <path d="M9.83645 33.4624C9.83645 33.4624 9.40841 47.1378 23.0804 47.1378C36.7523 47.1378 37.1384 35.3681 37.172 33.3113C35.9634 33.3113 9.83645 33.4624 9.83645 33.4624Z" fill="#13823A"/>
    <path d="M2.60986 32.7405H7.32665C7.32665 32.7405 7.41057 47.373 22.9038 48.6238C24.574 48.6658 28.7368 49.2366 33.1347 45.5764C35.7449 43.293 39.2363 39.6999 39.9161 32.7405C41.2841 32.7405 43.5922 32.7405 43.5922 32.7405L43.7432 39.8342L41.175 39.9854C41.175 39.9854 39.0097 43.7967 38.6404 44.2164C39.0768 44.6614 40.319 45.9038 40.319 45.9038L35.3924 51.1171L32.9668 48.9596C32.9668 48.9596 29.9874 50.5714 27.2597 51.1591C27.2597 52.0322 27.2513 53.7364 27.2513 53.7364H19.9411L19.9579 51.0835C19.9579 51.0835 16.03 50.051 14.3263 49.0771C13.999 49.4045 12.2365 51.1759 12.2365 51.1759L6.89861 46.0465L8.60236 44.1913C8.60236 44.1913 6.31111 40.4639 6.01736 40.0105C5.56415 40.0105 2.61826 40.0105 2.61826 40.0105V32.7405H2.60986Z" fill="#13823A"/>
    <path d="M40.8481 31.8422C40.8481 31.8422 40.227 27.8966 44.0709 26.78C44.0709 27.6363 45.3215 31.6911 40.8481 31.8422Z" fill="#13823A"/>
    <path d="M39.6901 31.8422C39.6901 31.8422 40.6972 27.8798 36.4672 26.78C36.2994 28.3583 35.9049 31.901 39.6901 31.8422Z" fill="#13823A"/>
    <path d="M40.8146 25.6803C40.8146 25.6803 40.2858 21.7599 44.0878 20.5762C44.2389 21.3569 45.0698 25.6551 40.8146 25.6803Z" fill="#13823A"/>
    <path d="M36.5089 20.6853C36.5089 20.6853 39.9416 20.7441 39.7989 25.6803C38.8422 25.6803 35.913 25.9825 36.5089 20.6853Z" fill="#13823A"/>
    <path d="M36.5089 14.5486C36.5089 14.5486 39.9416 14.6073 39.7989 19.5436C38.8422 19.5436 35.913 19.8458 36.5089 14.5486Z" fill="#13823A"/>
    <path d="M40.7892 19.5435C40.7892 19.5435 40.3192 15.3712 44.0876 14.4058C44.2387 15.3208 45.1199 19.5435 40.7892 19.5435Z" fill="#13823A"/>
    <path d="M40.3278 14.9682C41.2456 14.9682 41.9896 14.2202 41.9896 13.2976C41.9896 12.3749 41.2456 11.627 40.3278 11.627C39.41 11.627 38.666 12.3749 38.666 13.2976C38.666 14.2202 39.41 14.9682 40.3278 14.9682Z" fill="#13823A"/>
    <path d="M36.8029 5.20483H35.7202V10.7623H36.8029V5.20483Z" fill="#13823A"/>
    <path d="M44.6335 5.20483H43.5508V10.7623H44.6335V5.20483Z" fill="#13823A"/>
    <path d="M38.7414 5.20483H37.6587V9.96479H38.7414V5.20483Z" fill="#13823A"/>
    <path d="M42.6608 5.20483H41.5781V9.96479H42.6608V5.20483Z" fill="#13823A"/>
    <path d="M40.6296 5.20483H39.5469V9.43591H40.6296V5.20483Z" fill="#13823A"/>
    <path d="M10.8269 7.54691L10.1471 8.12617V9.17554H8.98047V5.02002H10.1471V6.96766L12.3964 5.02002H13.6973L11.599 6.87531L13.8232 9.18394H12.4551L10.8269 7.54691Z" fill="#13823A"/>
    <path d="M14.3184 4.13861C14.3184 3.85319 14.5701 3.64331 14.931 3.64331C15.2835 3.64331 15.5437 3.85319 15.5437 4.13861C15.5437 4.43244 15.2919 4.64231 14.931 4.64231C14.5701 4.65071 14.3184 4.43244 14.3184 4.13861ZM14.3351 5.02009H15.5101V9.184H14.3351V5.02009Z" fill="#13823A"/>
    <path d="M21.3348 9.17554L21.3264 6.68223L19.8325 8.739H19.3037L17.8182 6.7326V9.17554H16.7188V5.02002H17.6923L19.5891 7.60568L21.4607 5.02002H22.4259L22.4427 9.18394H21.3348V9.17554Z" fill="#13823A"/>
    <path d="M26.0681 7.70651V9.18403H24.8931V7.68972L22.9292 5.01172H24.1713L25.5226 6.85862L26.8738 5.01172H28.0237L26.0681 7.70651Z" fill="#13823A"/>
    <path d="M31.566 8.28577H29.2076L28.7544 9.17564H27.5542L29.8119 5.01172H30.9701L33.2362 9.17564H32.0024L31.566 8.28577ZM31.1883 7.5554L30.3826 5.96035L29.5769 7.5554H31.1883Z" fill="#13823A"/>
    <path d="M6.31981 26.6207V28.9881L7.20946 29.4415V30.6503L3.07178 28.3753V27.2084L7.20946 24.9333V26.1758L6.31981 26.6207ZM5.59803 26.9901L4.01178 27.796L5.59803 28.602V26.9901Z" fill="#13823A"/>
    <path d="M7.65404 18.9561C7.98136 19.2919 8.166 19.7704 8.166 20.3328C8.166 21.0884 7.93939 21.6257 7.26796 22.4064C7.12529 23.8084 6.26922 24.7906 5.14457 24.7906C3.91082 24.7906 3.00439 23.6069 3.00439 22.0034C3.00439 20.4 3.91082 19.2163 5.14457 19.2163C6.11814 19.2163 6.88189 19.9551 7.16725 21.038C7.37707 20.7862 7.461 20.5679 7.461 20.316C7.461 20.0054 7.36029 19.7284 7.15046 19.4849L7.65404 18.9561ZM6.46225 22.0034C6.46225 21.0968 5.92511 20.4084 5.13618 20.4084C4.34725 20.4084 3.81011 21.0968 3.81011 22.0034C3.81011 22.9101 4.34725 23.5985 5.13618 23.5985C5.92511 23.5985 6.46225 22.9185 6.46225 22.0034Z" fill="#13823A"/>
    <path d="M7.20946 15.0775L6.05963 16.0597V16.1184V17.1426H7.20946V18.3263H3.07178V16.1184C3.07178 14.7584 3.64249 13.9022 4.5741 13.9022C5.19517 13.9022 5.64838 14.2883 5.88338 14.9515L7.21785 13.8098V15.0775H7.20946ZM3.85231 16.1856V17.151H5.29588V16.1856C5.29588 15.4636 5.02731 15.1026 4.5741 15.1026C4.11249 15.1026 3.85231 15.4636 3.85231 16.1856Z" fill="#13823A"/>
    <path d="M5.13627 13.2894C3.90252 13.2894 2.99609 12.1057 2.99609 10.5022C2.99609 8.89878 3.90252 7.71509 5.13627 7.71509C6.37002 7.71509 7.27645 8.89878 7.27645 10.5022C7.27645 12.1141 6.37002 13.2894 5.13627 13.2894ZM5.13627 8.90718C4.34734 8.90718 3.8102 9.59557 3.8102 10.5022C3.8102 11.4089 4.34734 12.0973 5.13627 12.0973C5.9252 12.0973 6.46235 11.4089 6.46235 10.5022C6.46235 9.59557 5.9252 8.90718 5.13627 8.90718Z" fill="#13823A"/>
</svg>
