<svg width="49" height="55" viewBox="0 0 49 55" fill="none" xmlns="http://www.w3.org/2000/svg">
<path d="M20.2809 52.795L20.4998 52.3863C20.6457 52.1014 20.6821 51.7669 20.6335 51.4572L20.597 51.0732L20.828 51.2714C21.0834 51.482 21.3266 51.6802 21.5819 51.866L21.7521 51.9899L20.2809 52.795ZM48.8176 31.9471C48.8176 31.9347 48.8176 31.9347 48.8176 31.9223C48.8176 31.9099 48.8176 31.9099 48.8176 31.8975C48.8176 31.8851 48.8055 31.8851 48.8055 31.8851C48.8055 31.8851 48.7933 31.8727 48.7811 31.8727C48.769 31.8727 48.769 31.8727 48.7568 31.8727C48.7447 31.8727 48.7447 31.8727 48.7325 31.8727C48.7203 31.8727 48.7204 31.8851 48.7204 31.8851C48.7204 31.8851 48.7082 31.8975 48.7082 31.9099C48.4529 32.6532 48.161 33.4336 47.8571 34.0901C47.6747 34.3131 47.3342 34.7218 47.0789 34.8086C47.3342 34.4741 47.5045 34.0777 47.5653 33.6565C48.003 32.839 48.3434 31.9718 48.5866 31.08C48.5866 31.0676 48.5866 31.0676 48.5866 31.0552C48.5866 31.0428 48.5866 31.0428 48.5744 31.0304C48.5744 31.018 48.5623 31.018 48.5623 31.018C48.5623 31.018 48.5501 31.0056 48.538 31.0056C48.5258 31.0056 48.5258 31.0056 48.5136 31.0056C48.5015 31.0056 48.5015 31.0056 48.4893 31.018C48.4772 31.018 48.4772 31.0304 48.4772 31.0304C48.4772 31.0428 48.465 31.0428 48.465 31.0552C48.2583 31.848 47.9665 32.616 47.6017 33.3468C47.6382 33.0124 47.6504 32.6903 47.6382 32.3559C48.003 31.5878 48.2705 30.7827 48.4407 29.9403C48.4407 29.9279 48.4407 29.9279 48.4407 29.9155C48.4407 29.9032 48.4407 29.9032 48.4285 29.8908C48.4285 29.8784 48.4164 29.8784 48.4164 29.8784C48.4164 29.8784 48.4042 29.866 48.3921 29.866C48.3799 29.866 48.3677 29.866 48.3556 29.8784C48.3434 29.8908 48.3313 29.9032 48.3313 29.9155C48.1732 30.6712 47.9422 31.402 47.6382 32.1081C47.6382 31.8851 47.6261 31.6869 47.6261 31.5259C47.6261 31.4268 47.6261 31.3277 47.6261 31.241C47.9179 30.2624 48.1489 29.2714 48.3191 28.268C48.3191 28.2556 48.3191 28.2556 48.3191 28.2432C48.3191 28.2309 48.3191 28.2309 48.3069 28.2185L48.2948 28.2061C48.2826 28.2061 48.2826 28.1937 48.2705 28.1937C48.2583 28.1937 48.2462 28.1937 48.234 28.2061C48.2218 28.2185 48.2097 28.2309 48.2097 28.2432C48.0151 29.3333 47.7598 30.411 47.4315 31.4764C47.3464 31.6002 47.2613 31.7241 47.1762 31.8356C47.1275 31.8851 47.0911 31.9347 47.0668 31.9718C46.9573 32.1329 46.8236 32.3311 46.6898 32.5541C46.9816 31.6002 47.2856 30.5349 47.468 29.705C47.468 29.6926 47.468 29.6802 47.4558 29.6678C47.4437 29.6554 47.4315 29.643 47.4194 29.643C47.4072 29.643 47.395 29.643 47.3829 29.6554C47.3707 29.6678 47.3586 29.6802 47.3586 29.6926C47.164 30.6464 46.7871 31.9223 46.4467 32.9628C46.2156 33.3345 46.0333 33.7432 45.9117 34.1644C45.8509 33.7556 45.863 33.3345 45.9725 32.9257C46.3372 31.9347 46.6534 30.9313 46.9208 29.9155C46.9208 29.9032 46.9208 29.9032 46.9208 29.8908C46.9208 29.8784 46.9208 29.8784 46.9087 29.866C46.9087 29.8536 46.8965 29.8536 46.8965 29.8536C46.8965 29.8536 46.8844 29.8412 46.8722 29.8412C46.8601 29.8412 46.8601 29.8412 46.8479 29.8412C46.8357 29.8412 46.8357 29.8412 46.8236 29.8536C46.8114 29.8536 46.8114 29.866 46.8114 29.866C46.8114 29.8784 46.7993 29.8784 46.7993 29.8908C46.4831 31.1047 46.094 32.3063 45.632 33.4583C45.6199 33.4707 45.6199 33.4831 45.6199 33.4831C45.2551 33.991 44.9754 34.5608 44.8174 35.1802C44.6471 34.4493 45.2065 33.0372 45.3767 32.5293C43.638 36.4189 40.8536 39.4414 37.3275 41.857C33.8015 44.2725 29.6797 45.6227 25.4241 45.759C25.1931 45.7714 24.9499 45.7714 24.7189 45.7714C19.8067 45.7714 15.0404 44.1487 11.1132 41.1385C7.18586 38.1284 4.32854 34.2635 2.96675 29.4572C2.6871 29.036 2.28586 28.6396 1.88462 28.6396C1.77519 28.652 1.67792 28.6768 1.58065 28.7264C1.48337 28.7759 1.41042 28.8502 1.34963 28.9369C0.583623 29.8041 1.55633 30.7827 1.67792 30.8818C1.73871 30.9437 1.78734 31.018 1.81166 31.0923C1.83598 31.1791 1.84814 31.2658 1.83598 31.3401C1.81166 31.4764 1.70223 31.5755 1.51985 31.6498C1.37395 31.6993 1.25236 31.786 1.14293 31.9099C1.04566 32.0338 0.972705 32.17 0.948387 32.3187C0.92407 32.5045 0.948387 32.6903 1.00918 32.8637L1.11861 33.1115L0.851117 33.0743C0.802481 33.0743 0.729529 33.0743 0.668735 33.0743C0.462035 33.0619 0.255335 33.1239 0.0851117 33.2601C0.0486352 33.2973 0.0243176 33.3345 0.0121588 33.3716C0 33.4088 0 33.4583 0 33.4955C0.0729529 34.1396 0.92407 34.7714 0.92407 34.7714C0.911911 34.8209 0.911911 34.8829 0.92407 34.9324C0.936228 34.982 0.960546 35.0439 0.984864 35.0811C1.02134 35.1306 1.05782 35.1678 1.10645 35.1926C1.15509 35.2173 1.20372 35.2421 1.26452 35.2545C1.37395 35.2917 1.49553 35.3041 1.61712 35.3041C1.66576 35.3041 1.71439 35.3041 1.76303 35.2917C1.76303 35.2917 1.90893 35.2793 1.99404 35.2669C1.56849 35.6633 1.84814 37.5338 3.6598 37.7196C3.74491 37.732 3.83003 37.732 3.91514 37.7196C3.07618 38.884 4.51092 39.4786 4.51092 39.9493C4.51092 40.1475 4.2799 40.3333 4.0732 40.4572C3.79355 40.6182 3.4531 40.7421 3.4531 41.1881C3.4531 41.6959 3.74491 42.1914 4.88784 42.1914C5.28908 42.1914 5.7268 42.2286 5.7268 42.5259C5.7268 42.6498 5.56874 42.786 5.39851 42.8975C5.19181 43.0462 4.94864 43.1948 4.94864 43.455C4.94864 43.5169 4.93648 44.0743 5.78759 44.3716L6.1402 44.4831L5.81191 44.6441C5.71464 44.6813 5.64169 44.7432 5.58089 44.8176C5.5201 44.9043 5.48362 44.991 5.48362 45.0901C5.47146 45.3502 5.69032 45.598 6.15236 45.7838C6.4928 45.9077 6.84541 45.9944 7.21017 46.0191L7.23449 46.0811L7.27097 46.1306C7.30744 46.1678 7.34392 46.205 7.39256 46.2297C7.44119 46.2545 7.48983 46.2669 7.53846 46.2793L7.68437 46.2917V46.4403C7.68437 46.5394 7.70869 46.6261 7.74516 46.7128C7.78164 46.7996 7.84243 46.8739 7.91538 46.9358C8.09777 47.134 8.30447 47.3074 8.52332 47.4685L8.88809 47.7286L8.45037 47.7534C7.75732 47.7905 7.1737 48.2117 7.07643 48.732C7.05211 48.8559 7.05211 48.9797 7.07643 49.1036C7.10074 49.2275 7.14938 49.339 7.22233 49.4505C7.42903 49.6858 7.72084 49.8468 8.02481 49.8716C8.04913 49.8716 8.08561 49.8716 8.10993 49.8716C8.30447 49.8592 8.49901 49.8345 8.69355 49.7725C9.05831 49.6858 9.1799 49.6858 9.33797 50.1689C9.47171 50.5653 9.56898 50.8378 9.93375 50.8378H10.1648C10.1648 50.8378 9.70273 52.2128 10.262 52.7207C10.335 52.7703 10.4201 52.795 10.5052 52.7827C10.8092 52.7827 11.2226 52.3863 11.5387 51.9899C11.9764 51.4572 12.3412 51.4077 12.3898 51.4077H12.4385L12.4749 51.4324C12.6208 51.5191 12.7789 51.5811 12.9491 51.6059C13.0342 51.6306 13.1194 51.6678 13.1923 51.7297C13.2653 51.7917 13.3139 51.8784 13.3382 51.9651C13.3625 52.0642 13.3625 52.1633 13.3261 52.25C13.3017 52.3491 13.2409 52.4234 13.168 52.4854C12.937 52.7331 12.8154 53.0676 12.8154 53.402C12.8032 53.5507 12.8275 53.6993 12.8762 53.848C12.9248 53.9842 12.9978 54.1205 13.095 54.232C13.1923 54.3311 13.3139 54.4178 13.4476 54.4673C13.5814 54.5169 13.7273 54.5417 13.861 54.5417C14.0313 54.5541 14.2136 54.5293 14.3717 54.455C14.5298 54.3806 14.6757 54.2815 14.7851 54.1453C15.004 53.8851 15.1256 53.5507 15.1012 53.2038C15.0891 53.1419 15.0891 53.0676 15.1012 53.0056C15.1134 52.9437 15.1499 52.8818 15.1864 52.8198C15.2107 52.7827 15.2471 52.7579 15.2958 52.7455C15.3323 52.7331 15.3809 52.7207 15.4174 52.7207C15.5146 52.7207 15.5998 52.7579 15.6727 52.8074C15.8551 52.9685 16.0861 53.0676 16.3171 53.08C16.4873 53.08 16.6576 53.0056 16.7913 52.9065C16.9007 52.8322 16.9859 52.7207 17.0345 52.5845L17.1074 52.3615L17.2777 52.5349C17.3506 52.6092 17.4357 52.6836 17.533 52.7207C17.6303 52.7703 17.7397 52.7827 17.8491 52.7827C18.0558 52.7827 18.2504 52.7207 18.4206 52.6092L18.6395 52.4358L18.6516 52.7207V52.7579C18.6516 52.8322 18.6759 52.9065 18.7124 52.9809C18.7489 53.0428 18.7975 53.1047 18.8705 53.1543C19.1744 53.3525 19.7094 53.1047 19.7094 53.1047C19.7094 53.1047 18.8948 53.5878 18.7975 53.6746C18.7732 53.6993 18.7489 53.7241 18.7367 53.7613C18.7246 53.7984 18.7246 53.8356 18.7246 53.8727C18.761 54.1453 19.2352 54.2444 19.5514 54.2444C19.6608 54.2444 19.7702 54.232 19.8675 54.2072C20.0256 54.17 20.1715 54.1081 20.3052 54.0338C20.3052 54.0338 21.6913 52.9932 22.7248 52.6216C21.9831 53.0552 21.2779 53.5383 20.5849 54.0586C20.5241 54.1081 20.4754 54.1577 20.4511 54.232C20.4268 54.3063 20.4146 54.3806 20.4268 54.455C20.4998 54.777 21.1442 54.839 21.3266 54.839C21.6548 54.839 22.3357 54.6779 22.5546 54.4673C22.5668 54.455 22.5789 54.4426 22.5911 54.4178L22.6032 54.4054C22.9802 53.9842 23.4057 53.6126 23.8799 53.3029L23.9529 53.2534L24.038 53.3029C24.5122 53.5755 25.497 54.17 26.0199 54.4797L26.1779 54.5788V54.5664L26.3481 54.6779C26.4211 54.7275 26.5184 54.7523 26.6035 54.7646C26.7494 54.7894 26.8953 54.7894 27.0534 54.7894C27.9653 54.7894 28.6097 54.4178 28.6218 54.0957C28.6218 54.0338 28.6097 53.9718 28.5732 53.9223C28.5367 53.8727 28.4881 53.8356 28.4395 53.8108L28.4273 53.7984C28.0017 53.6126 26.4819 52.8818 25.4119 52.3491L26.2873 52.4358L26.3603 52.4606C26.8953 52.5225 28.1963 53.2782 28.9137 53.7241L28.938 53.7365C29.096 53.8108 29.2663 53.848 29.4365 53.848C29.7891 53.848 30.3605 53.6993 30.4213 53.402C30.4335 53.3153 30.4213 53.241 30.3849 53.1667C30.3484 53.0923 30.2876 53.0428 30.2025 53.0056L26.8102 51.6306L26.8831 51.3581V51.3457C28.7677 52.1633 30.6888 52.8694 32.6342 53.464L32.464 53.6126C32.233 53.7984 31.5521 54.2568 30.0931 54.4797C30.5429 54.5788 31.0171 54.616 31.4792 54.6036C32.5613 54.5788 33.6191 54.3187 34.5918 53.848C34.6526 53.3277 34.7499 52.8074 34.8836 52.2996L34.9079 52.1881L35.832 52.1633L35.6375 52.411C35.4794 52.634 35.3578 52.8818 35.2727 53.1295C35.9901 52.8198 36.6831 52.4234 37.3275 51.9775C37.6315 51.5935 37.8504 51.1599 37.9598 50.6768C37.9355 50.6396 37.9112 50.5901 37.8747 50.5529C36.9506 50.6644 34.5189 50.8255 33.7285 50.714C33.765 50.6768 33.9352 50.5901 34.0203 50.5405C35.4308 50.5158 36.829 50.2556 38.1665 49.7725C38.3732 49.6858 38.5921 49.6239 38.8109 49.5743C39.735 49.3018 40.6226 48.9054 41.4494 48.3851C41.4615 48.3851 41.4615 48.3727 41.4615 48.3727C41.4615 48.3727 41.4737 48.3604 41.4737 48.348C41.4737 48.3356 41.4737 48.3356 41.4737 48.3232C41.4737 48.3108 41.4737 48.3108 41.4615 48.2984C41.4615 48.286 41.4494 48.286 41.4494 48.286C41.4494 48.286 41.4372 48.2737 41.4251 48.2737C41.4129 48.2737 41.4129 48.2737 41.4007 48.2737C41.3886 48.2737 41.3886 48.2736 41.3764 48.286C39.8931 49.1532 38.9568 49.4628 37.8869 49.661C36.9993 49.7601 35.8806 49.2399 35.8806 49.2399C37.1938 49.4133 39.1635 48.6453 40.6712 47.7905C41.5345 47.4313 42.3491 46.9358 43.0787 46.3288L43.0908 46.3164C43.0908 46.3041 43.0908 46.3041 43.0908 46.2917C43.0908 46.2793 43.0908 46.2793 43.0908 46.2669C43.0908 46.2545 43.0908 46.2545 43.0787 46.2421L43.0665 46.2297C43.0543 46.2297 43.0543 46.2297 43.0422 46.2297C43.03 46.2297 43.03 46.2297 43.0179 46.2297C43.0057 46.2297 43.0057 46.2297 42.9936 46.2421C42.4221 46.7252 41.802 47.134 41.1211 47.4561C40.2943 47.7038 39.431 47.7658 38.5799 47.6295C39.4918 47.5552 40.6834 46.9358 41.6318 46.3288C42.7139 45.7714 43.7352 45.1149 44.6958 44.3592C44.7079 44.3468 44.7201 44.3345 44.7201 44.3221C44.7201 44.3097 44.7201 44.2973 44.7079 44.2849C44.6958 44.2725 44.6836 44.2601 44.6715 44.2601C44.6593 44.2601 44.6471 44.2601 44.635 44.2725C43.8568 44.8795 43.0422 45.4246 42.1789 45.9077C41.5223 46.0439 40.8414 46.0439 40.1849 45.9077C41.5467 45.8209 42.6409 45.1149 43.6623 44.2478C44.4526 43.7275 45.2065 43.1329 45.8995 42.464L45.9117 42.4516C45.9117 42.4392 45.9117 42.4392 45.9117 42.4268C45.9117 42.4144 45.9117 42.4144 45.9117 42.402C45.9117 42.3896 45.8995 42.3896 45.8995 42.3773L45.8873 42.3649C45.8752 42.3649 45.8752 42.3649 45.863 42.3649C45.8509 42.3649 45.8509 42.3649 45.8387 42.3649C45.8266 42.3649 45.8266 42.3773 45.8144 42.3773C45.2065 42.9595 44.5499 43.4921 43.869 43.9628C43.1638 44.2106 42.4221 44.2849 41.6804 44.2106C42.9571 44.0867 43.9176 43.2939 44.635 42.5631C45.2916 42.0304 45.9117 41.4358 46.4831 40.8041C46.4953 40.7917 46.4953 40.7793 46.4953 40.7669C46.4953 40.7545 46.4831 40.7421 46.4831 40.7297C46.471 40.7173 46.4588 40.7173 46.4467 40.7173C46.4345 40.7173 46.4223 40.7173 46.4102 40.7297C45.9846 41.2004 45.5226 41.6588 45.0484 42.08C44.6593 42.3029 44.2216 42.4144 43.7717 42.402C44.3797 42.2038 45.3159 41.3243 45.9238 40.5068C46.7628 39.6149 47.5166 38.6487 48.161 37.5957C48.161 37.5833 48.1732 37.5833 48.1732 37.5709C48.1732 37.5586 48.1732 37.5586 48.1732 37.5462C48.1732 37.5338 48.1732 37.5338 48.161 37.5214C48.161 37.509 48.1489 37.509 48.1489 37.509C48.1367 37.509 48.1367 37.4966 48.1246 37.4966C48.1124 37.4966 48.1124 37.4966 48.1003 37.4966C48.0881 37.4966 48.0881 37.4966 48.0759 37.509C48.0638 37.509 48.0638 37.5214 48.0638 37.5214C47.4558 38.5 46.7506 39.4167 45.9846 40.259C45.6685 40.3333 45.3402 40.3829 45.0119 40.3953C45.5955 40.1351 45.936 39.4043 46.6169 38.4257C47.2735 37.6824 47.8449 36.8649 48.3191 35.9977C48.3313 35.9854 48.3313 35.973 48.3191 35.9606C48.3191 35.9482 48.307 35.9358 48.2948 35.9234C48.2826 35.911 48.2705 35.911 48.2583 35.9234C48.2462 35.9234 48.234 35.9358 48.2218 35.9482C47.8449 36.6419 47.4072 37.2984 46.9087 37.9054C46.702 38.1284 46.4223 38.2646 46.1305 38.3142C46.6169 37.7568 47.0181 37.1374 47.3342 36.4685C47.8084 35.8119 48.2097 35.0935 48.5136 34.3378C48.5136 34.3255 48.5136 34.3255 48.5136 34.3131C48.5136 34.3007 48.5136 34.3007 48.5136 34.2883C48.5136 34.2759 48.5015 34.2759 48.5015 34.2635C48.5015 34.2635 48.4893 34.2511 48.4772 34.2511C48.465 34.2511 48.465 34.2511 48.4529 34.2511C48.4407 34.2511 48.4407 34.2511 48.4285 34.2511C48.4164 34.2511 48.4164 34.2635 48.4042 34.2635L48.3921 34.2759C48.0881 35.0563 47.6869 35.7748 47.1883 36.4437C47.006 36.6171 46.7993 36.741 46.5682 36.8277C47.2613 36.1464 47.5045 35.205 47.7355 34.375C48.1975 33.6194 48.538 32.7894 48.8176 31.9471Z" fill="black"/>
<path d="M5.59304 36.6914C6.11587 37.1002 6.14019 37.3356 6.03076 37.5462C5.92133 37.7568 5.70247 38.2894 6.17666 38.5248C6.56574 38.723 6.94267 37.9549 7.0521 37.4718C6.60222 36.8896 6.17666 36.295 5.77542 35.6757C5.67815 35.7128 5.59304 35.7624 5.52009 35.8491C5.44713 35.9358 5.41066 36.0225 5.38634 36.1216C5.36202 36.2207 5.37418 36.3322 5.41066 36.4313C5.45929 36.5428 5.52009 36.6295 5.59304 36.6914Z" fill="#005844"/>
<path d="M9.8 41.2872C9.84864 41.4234 9.90943 41.4977 9.93375 41.4977C9.99454 41.2872 9.99454 41.0642 9.93375 40.8536C9.87295 40.643 9.75137 40.4572 9.5933 40.3085C9.50819 40.2342 9.39876 40.1971 9.27717 40.1723C9.16774 40.1599 9.04615 40.1723 8.94888 40.2218C9.47171 40.4324 9.71489 41.0518 9.8 41.2872Z" fill="#005844"/>
<path d="M21.8615 50.8378C21.7764 49.8221 20.7307 50.813 20.7307 50.813C21.132 51.1971 21.5454 51.5439 21.9952 51.8784C22.0925 51.8288 22.0803 51.8288 22.1776 51.7793L22.1047 51.643C21.9709 51.3953 21.8858 51.1227 21.8615 50.8378Z" fill="#005844"/>
<path d="M18.2017 51.5067C17.8005 51.5067 17.4236 51.2094 17.1561 50.9741C17.1561 50.9741 16.925 50.7387 16.7427 50.8874C16.6089 50.9989 16.694 51.3085 16.7913 51.482C16.9129 51.6554 16.998 51.8412 17.0709 52.027C17.2169 52.25 17.5695 52.5721 17.8248 52.5225C18.2747 52.4482 18.5665 52.2128 18.4449 51.42C18.3719 51.482 18.2868 51.5067 18.2017 51.5067Z" fill="#005844"/>
<path d="M4.64465 35.0563C4.20693 33.8176 3.59899 33.2725 2.9181 32.6531L2.82083 32.5664C2.80867 32.554 2.80867 32.5417 2.79651 32.5293C2.79651 32.5169 2.79651 32.5045 2.80867 32.4921C2.82083 32.4797 2.83299 32.4797 2.84514 32.4673C2.8573 32.4673 2.86946 32.4673 2.88162 32.4797L2.97889 32.5664C3.55036 33.0248 4.02455 33.5822 4.38931 34.214C3.8908 32.839 3.22207 31.5259 2.40743 30.3243C2.39527 30.3119 2.39527 30.2995 2.39527 30.2872C2.39527 30.2748 2.40743 30.2624 2.41959 30.25C2.43175 30.2376 2.4439 30.2376 2.45606 30.2376C2.46822 30.2376 2.48038 30.25 2.49254 30.2624C3.44093 31.7489 4.20693 33.0495 4.76624 35.0935C5.22827 35.7748 4.83919 34.1149 4.83919 34.1149V34.1025C4.17045 32.8637 3.62331 31.5631 3.18559 30.2128L3.17343 30.2004C2.93026 29.5068 2.01835 28.2556 1.45904 29.0236C1.08212 29.5315 1.06996 29.9279 1.90892 30.9065C1.96971 30.9685 2.00619 31.0552 2.0305 31.1295C2.05482 31.2162 2.05482 31.3029 2.04266 31.3896C2.0305 31.4763 1.99403 31.5507 1.94539 31.625C1.89676 31.6993 1.8238 31.7489 1.75085 31.786C0.875418 32.1824 1.08212 32.7151 1.45904 32.9876C1.71438 33.1734 2.74787 33.8919 2.69924 34.4741C2.6506 35.0687 1.98187 35.143 2.00619 35.8863C2.01835 36.357 2.48038 37.4842 3.59899 37.4966C4.47443 37.4966 5.05805 36.357 4.64465 35.0563Z" fill="#005844"/>
<path d="M7.76945 38.3513C7.52627 38.3142 7.03992 38.3637 6.88185 38.5372C6.63868 38.7973 6.03074 39.1441 5.72677 38.4504C5.37416 37.6577 5.05803 37.2365 4.29203 37.6824C3.52602 38.1284 3.9151 38.9583 4.29203 39.3052C4.66895 39.6768 5.16746 40.0856 4.51088 40.4696C3.9759 40.7793 3.62329 40.8164 3.62329 41.2376C3.62329 41.5473 3.75704 41.9932 4.99724 41.9932C5.48359 41.9932 6.06721 42.0676 6.04289 42.5507C6.00642 43.17 5.1553 43.0833 5.1553 43.4673C5.14314 43.8761 5.5687 44.2725 6.6022 44.3468C6.97912 44.3716 7.35605 44.2601 7.67218 44.0372C7.64786 43.9628 7.6357 43.8885 7.6357 43.8018C7.64786 43.4797 7.89103 43.2568 8.15853 43.0462C8.2558 42.9718 8.26796 42.9223 8.26796 42.9223C8.26796 42.8975 8.24364 42.7736 7.8424 42.4392C7.67218 42.3029 7.53843 42.1419 7.44116 41.9437C7.17366 41.7083 6.90617 41.4482 6.63868 41.1633C6.46845 41.1881 6.29823 41.2004 6.12801 41.2004C5.67813 41.1881 5.2161 41.1385 4.77838 41.0394C4.76622 41.0394 4.75406 41.027 4.7419 41.0146C4.72974 41.0022 4.72974 40.9899 4.72974 40.9775C4.72974 40.9651 4.7419 40.9527 4.75406 40.9403C4.76622 40.9279 4.77838 40.9279 4.79054 40.9279C5.362 41.0642 5.95778 41.1137 6.54141 41.0642C5.7754 40.2218 5.09451 39.3176 4.51088 38.339C4.49873 38.3266 4.49873 38.3142 4.49873 38.3018C4.49873 38.2894 4.51088 38.277 4.52304 38.2646C4.5352 38.2522 4.54736 38.2522 4.55952 38.2522C4.57168 38.2522 4.58384 38.2646 4.596 38.277C5.17962 39.2309 5.84835 40.1227 6.59004 40.9527C6.55356 40.3333 6.56572 39.7016 6.65084 39.0822C6.65084 39.0698 6.65084 39.0698 6.66299 39.0574C6.66299 39.045 6.67515 39.045 6.67515 39.045C6.67515 39.045 6.68731 39.0327 6.69947 39.0327C6.71163 39.0327 6.71163 39.0327 6.72379 39.0327C6.73595 39.0327 6.73595 39.0327 6.74811 39.045C6.76026 39.045 6.76026 39.0574 6.76026 39.0574C6.76026 39.0574 6.77242 39.0698 6.77242 39.0822C6.77242 39.0946 6.77242 39.0946 6.77242 39.107C6.68731 39.7635 6.67515 40.4324 6.72379 41.089C6.93049 41.3119 7.14935 41.5225 7.35605 41.7207C7.28309 41.4606 7.28309 41.1881 7.39252 40.9403C7.48979 40.6926 7.67218 40.482 7.90319 40.3581C8.12205 40.2218 8.36523 40.1475 8.6084 40.1351C8.6692 40.1351 8.71783 40.1351 8.77863 40.1475C8.77863 39.8626 8.75431 39.5653 8.68136 39.2928C8.34091 38.9831 8.0491 38.6734 7.76945 38.3513Z" fill="#005844"/>
<path d="M9.59327 41.2995C9.36225 40.7297 8.81511 39.9741 7.96399 40.5439C7.35605 40.9527 7.33173 41.7579 7.96399 42.2781C8.49898 42.7117 8.64488 42.9099 8.21932 43.2444C7.79377 43.5788 7.64786 43.9009 8.17069 44.3592C8.69352 44.8176 9.03396 45.1396 8.81511 45.4617C8.43818 45.9944 7.40468 46.2421 8.02478 46.8491C8.26796 47.1092 8.54761 47.3322 8.85158 47.5056C8.85158 47.4684 8.85158 47.4437 8.85158 47.3941C8.83942 47.2703 8.85158 47.134 8.88806 47.0225C8.92454 46.8986 8.98533 46.7871 9.07044 46.688C9.13124 46.6261 9.20419 46.5766 9.27714 46.5394C9.36225 46.5022 9.44736 46.4898 9.53248 46.4898C9.66622 46.4898 9.79997 46.527 9.92156 46.6013C10.0675 46.7004 10.2377 46.7624 10.4201 46.7624C10.5538 46.7624 10.6754 46.7252 10.7848 46.6633C10.8821 46.6013 10.9429 46.5022 10.9794 46.3907C10.5052 46.2916 10.0431 46.1306 9.61759 45.8953C9.60543 45.8953 9.60543 45.8829 9.59327 45.8829C9.59327 45.8829 9.58111 45.8705 9.58111 45.8581C9.58111 45.8457 9.58111 45.8457 9.58111 45.8333C9.58111 45.8209 9.58111 45.8209 9.58111 45.8085C9.58111 45.7962 9.59327 45.7962 9.59327 45.7962C9.59327 45.7962 9.60543 45.7838 9.61759 45.7838C9.62975 45.7838 9.62975 45.7838 9.64191 45.7838C9.65406 45.7838 9.65406 45.7838 9.66622 45.7962C10.0796 46.0191 10.5295 46.1802 10.9794 46.2793C10.9915 46.2793 10.9915 46.2793 11.0037 46.2916V46.2793C11.028 46.1182 11.0645 45.9448 11.1253 45.7962C11.1253 45.7962 11.1131 45.7962 11.1131 45.7838C10.8821 45.2139 10.6025 44.6565 10.2863 44.1239C9.98235 44 9.66622 43.9133 9.35009 43.8761C9.07044 43.8266 8.75431 43.7646 8.45034 43.6903C8.43818 43.6903 8.43818 43.6903 8.42602 43.6779C8.41387 43.6779 8.41387 43.6655 8.41387 43.6655C8.41387 43.6531 8.40171 43.6531 8.40171 43.6407C8.40171 43.6284 8.40171 43.6284 8.40171 43.616C8.40171 43.6036 8.40171 43.6036 8.41387 43.5912L8.42602 43.5788C8.43818 43.5788 8.43818 43.5788 8.45034 43.5664C8.4625 43.5664 8.4625 43.5664 8.47466 43.5664C8.77863 43.6408 9.09476 43.7027 9.37441 43.7522C9.65406 43.7894 9.92156 43.8513 10.1891 43.938C9.60543 43.009 8.96101 42.1047 8.26796 41.2624C8.26796 41.2624 8.2558 41.25 8.2558 41.2376C8.2558 41.2252 8.2558 41.2252 8.2558 41.2128C8.2558 41.2004 8.2558 41.2004 8.26796 41.188C8.26796 41.1757 8.28012 41.1757 8.28012 41.1757C8.28012 41.1757 8.29228 41.1633 8.30444 41.1633C8.3166 41.1633 8.3166 41.1633 8.32875 41.1633C8.34091 41.1633 8.34091 41.1633 8.35307 41.1757C8.36523 41.1757 8.36523 41.188 8.36523 41.188C9.07044 42.0428 9.71486 42.9347 10.2985 43.8761C10.3106 43.0462 10.4079 42.2905 10.5417 42.0304C10.5538 42.018 10.566 42.0056 10.5781 42.0056C10.5903 42.0056 10.6025 42.0056 10.6146 42.0056C10.6268 42.018 10.6389 42.0304 10.6389 42.0428C10.6389 42.0552 10.6389 42.0676 10.6389 42.0799C10.5295 42.3029 10.4079 43.0585 10.4079 44.0495C10.7119 44.5574 10.9672 45.0901 11.1982 45.6351C11.2955 45.4741 11.4171 45.3378 11.5752 45.2387C11.6603 45.1768 11.7575 45.1396 11.8548 45.1148V44.223C11.8548 44.2106 11.8548 44.1982 11.867 44.1858C11.8791 44.1734 11.8913 44.1734 11.9034 44.1734C11.9156 44.1734 11.9278 44.1734 11.9399 44.1858C11.9521 44.1982 11.9521 44.2106 11.9521 44.223V45.1025C11.9764 45.1025 11.9886 45.1025 12.0129 45.1025C12.6208 45.1025 13.3747 45.7218 13.8245 46.304C13.9461 46.2793 14.0556 46.2669 14.1771 46.2669C14.4933 46.2669 14.5662 46.2297 14.6149 46.0935C14.6757 45.9076 14.6149 45.8333 13.934 45.5112C13.8489 45.4741 13.7516 45.4245 13.6543 45.375C13.4962 45.313 13.3625 45.2139 13.2531 45.0901C13.1436 44.9662 13.0585 44.8175 13.0221 44.6441C12.9977 44.4831 12.9977 44.3097 13.0342 44.1486C13.0707 43.9876 13.1436 43.8389 13.2288 43.7027C13.0342 43.2567 12.7302 42.9223 12.0737 43.0462C11.7697 43.1081 11.3685 43.2196 11.2347 42.5507C11.101 41.8694 10.8943 41.25 10.4079 41.5473C10.0675 41.8198 9.81213 41.8694 9.59327 41.2995Z" fill="#005844"/>
<path d="M19.6364 47.4065C19.7337 46.8615 19.5757 45.4617 18.4692 45.8829C17.5938 46.2173 17.46 46.1554 17.3992 45.5732C17.3384 44.991 16.6697 44.6937 16.1104 44.7061C15.5632 44.7185 15.5754 44.8547 15.3687 44.5203C15.162 44.1858 13.8853 43.5169 13.8853 43.5169C13.7394 43.5417 13.6057 43.616 13.4963 43.7275C13.1923 44.1239 12.9491 44.8423 13.6665 45.1892C14.396 45.536 14.9553 45.5484 14.8094 46.1182C14.627 46.8119 13.861 46.2545 13.6786 46.7748C13.5692 47.0968 14.0312 47.9763 14.8337 47.679C15.5389 47.4189 16.5116 47.357 16.5603 47.9268C16.6332 48.8311 14.8824 48.7567 15.7699 49.8097C16.1955 50.3052 17.1682 50.2061 17.8491 50.107C18.1652 50.0326 18.4449 49.8468 18.6273 49.5743C18.5786 49.3266 18.5178 49.0788 18.4327 48.8435C17.764 48.6329 17.3506 48.6081 16.998 48.7691C16.9858 48.7691 16.9737 48.7691 16.9615 48.7691C16.9494 48.7691 16.9372 48.7567 16.925 48.7444C16.925 48.732 16.9129 48.7196 16.925 48.6948C16.925 48.6824 16.9372 48.67 16.9494 48.6576C17.3749 48.4718 17.8248 48.5338 18.3719 48.6948C17.9829 47.7286 17.302 47.1588 16.5967 46.6509C16.1712 46.7376 15.7456 46.7871 15.3079 46.7995C15.235 46.7995 15.162 46.7995 15.0891 46.7872C15.0769 46.7872 15.0769 46.7872 15.0647 46.7872C15.0526 46.7872 15.0526 46.7748 15.0526 46.7748C15.0526 46.7748 15.0404 46.7624 15.0404 46.75C15.0404 46.7376 15.0404 46.7376 15.0404 46.7252C15.0404 46.7128 15.0526 46.7004 15.0647 46.688C15.0769 46.6757 15.0891 46.6757 15.1012 46.6757C15.5632 46.688 16.0131 46.6509 16.463 46.5642L16.3171 46.4527C15.5389 45.9076 14.7364 45.3378 14.323 44.2849C14.323 44.2725 14.323 44.2601 14.323 44.2354C14.323 44.223 14.3352 44.2106 14.3595 44.2106C14.3717 44.2106 14.3838 44.2106 14.4082 44.2106C14.4203 44.2106 14.4325 44.223 14.4325 44.2477C14.8337 45.2635 15.5876 45.7962 16.39 46.366C16.463 46.4155 16.536 46.4651 16.6089 46.5146C16.6089 46.0563 16.5116 45.598 16.3414 45.1768C16.3414 45.1644 16.3414 45.1644 16.3293 45.152C16.3293 45.1396 16.3293 45.1396 16.3293 45.1272C16.3293 45.1149 16.3293 45.1149 16.3414 45.1025L16.3536 45.0901C16.3657 45.0901 16.3657 45.0901 16.3779 45.0777C16.39 45.0777 16.39 45.0777 16.4022 45.0777C16.4144 45.0777 16.4144 45.0777 16.4265 45.0901L16.4387 45.1025C16.6332 45.5608 16.7305 46.0687 16.7183 46.5642V46.5766C17.3749 47.0473 18.0072 47.5799 18.4084 48.4471C18.3962 48.3108 18.3719 48.1374 18.3476 47.964C18.2747 47.5552 18.2382 47.1464 18.226 46.7252C18.226 46.7128 18.226 46.7128 18.226 46.7004C18.226 46.6881 18.2382 46.688 18.2382 46.688L18.2503 46.6757C18.2625 46.6757 18.2625 46.6757 18.2747 46.6757C18.2868 46.6757 18.2868 46.6757 18.299 46.6757C18.3111 46.6757 18.3111 46.688 18.3111 46.688L18.3233 46.7004C18.3233 46.7128 18.3233 46.7128 18.3233 46.7252C18.3355 47.134 18.3841 47.5428 18.4449 47.9516C18.4935 48.2117 18.5178 48.4842 18.53 48.7567C18.6151 48.9797 18.6759 49.2027 18.7245 49.4257C18.761 49.3637 18.7975 49.3018 18.8218 49.2275C18.9799 48.8558 19.1623 48.4471 19.3203 48.1126C19.4905 47.902 19.5757 47.6543 19.6364 47.4065Z" fill="#005844"/>
<path d="M18.2868 50.2185C17.8856 50.3671 17.4479 50.429 17.0223 50.4167C16.4387 50.4167 16.0131 50.2804 15.7091 49.9831C15.697 49.9707 15.6727 49.9459 15.6605 49.9335C15.5268 50.0698 15.393 50.2185 15.2836 50.3795C15.2714 50.9493 15.4052 51.5067 15.6727 52.0022C15.6848 52.0146 15.6848 52.027 15.6848 52.0394C15.6848 52.0518 15.6727 52.0642 15.6605 52.0766C15.6484 52.0889 15.6362 52.0889 15.624 52.0889C15.6119 52.0889 15.5997 52.0766 15.5876 52.0642C15.3201 51.5935 15.1863 51.0608 15.1863 50.5281C14.6027 51.4448 14.2501 52.4853 14.165 53.563C14.165 53.5754 14.1528 53.5878 14.1528 53.6002C14.1407 53.6126 14.1285 53.6126 14.1163 53.6126C14.1042 53.6126 14.092 53.6002 14.0799 53.5878C14.0677 53.5754 14.0677 53.563 14.0677 53.5507C14.1528 52.4977 14.4933 51.482 15.0404 50.5777C14.7608 50.7759 14.2866 51.1227 14.0069 51.3705C13.9948 51.3829 13.9826 51.3829 13.9704 51.3829C13.9583 51.3829 13.9461 51.3705 13.934 51.3581C13.9218 51.3457 13.9218 51.3333 13.9218 51.3209C13.9218 51.3085 13.9218 51.2962 13.934 51.2838C14.3595 50.9121 15.1742 50.3423 15.2228 50.3052C15.3444 50.1441 15.4781 49.9831 15.624 49.8344C15.5511 49.7601 15.4903 49.661 15.4538 49.5619C15.4173 49.4628 15.393 49.3513 15.4052 49.2398C15.4417 48.893 15.7335 48.6824 16.001 48.509C16.0861 48.4471 16.159 48.3975 16.232 48.348C16.1469 48.2489 16.0861 48.1745 16.0374 48.125C15.9158 48.0135 15.7699 47.9268 15.624 47.8648C15.466 47.8153 15.3079 47.7905 15.1377 47.8029C15.1012 47.8153 15.0769 47.8153 15.0404 47.8277C14.931 47.8649 14.8094 47.902 14.6878 47.902C14.3352 48.0878 14.4689 48.4718 14.7243 48.6205C14.7972 48.6576 14.8702 48.7196 14.9067 48.7939C14.9553 48.8682 14.9796 48.9549 14.9796 49.0417C14.9796 49.1284 14.9553 49.2151 14.9188 49.2894C14.8823 49.3637 14.8094 49.4257 14.7364 49.4752C14.3109 49.7601 13.8245 49.9335 13.3139 49.9831C12.6208 50.107 12.329 50.3919 12.3047 50.7387C12.256 51.5067 13.1801 51.2218 13.4354 51.5067C13.5084 51.5935 13.557 51.6802 13.5935 51.7917C13.63 51.8908 13.6421 52.0022 13.63 52.1137C13.6178 52.2252 13.5935 52.3243 13.5327 52.4234C13.4841 52.5225 13.4111 52.5968 13.326 52.6712C13.2287 52.7579 13.1436 52.8694 13.095 53.0056C13.0464 53.1295 13.0099 53.2658 13.022 53.402C13.022 53.5383 13.0585 53.6745 13.1193 53.7984C13.1801 53.9223 13.2652 54.0338 13.3625 54.1205C13.8124 54.4921 14.6513 54.2815 14.7851 53.6498C14.9067 53.0304 14.7364 52.6464 15.1863 52.4853C15.6362 52.3243 16.1225 53.1047 16.7426 52.6959C17.3627 52.2871 16.5359 51.6678 16.5116 51.1227C16.4873 50.5777 16.998 50.4538 17.3141 50.7387C17.6302 51.0236 18.1044 51.482 18.4692 51.1599C18.7124 50.9369 18.6516 50.5158 18.2868 50.2185Z" fill="#005844"/>
<path d="M25.6308 51.8908C26.032 51.3953 25.9955 50.5034 25.0471 50.0327C24.196 49.6115 25.8131 49.0169 25.2417 48.3975C24.6702 47.7658 24.3298 48.0754 23.3327 48.0135C22.3357 47.9516 23.0288 47.1588 22.4451 46.4403C22.1655 46.0935 21.7399 46.1182 21.2779 46.3536C20.7551 46.6881 19.758 47.8525 19.2474 48.9178C19.527 48.8559 19.7945 48.8063 20.0377 48.7568C20.7551 48.4099 21.4116 47.9392 21.9831 47.3818C21.9953 47.3694 22.0074 47.3694 22.0196 47.357C22.0317 47.357 22.0439 47.357 22.0561 47.3694C22.0682 47.3818 22.0682 47.3941 22.0682 47.4065C22.0682 47.4189 22.0682 47.4313 22.0561 47.4437C21.5697 47.9392 21.0104 48.348 20.4025 48.6824C21.2293 48.5462 21.8372 48.5462 22.4208 48.7815C22.895 48.9178 24.196 49.1036 24.7067 48.8806C24.7188 48.8806 24.731 48.8682 24.7553 48.8806C24.7675 48.8806 24.7796 48.893 24.7918 48.9054C24.7918 48.9178 24.7918 48.9302 24.7918 48.955C24.7918 48.9673 24.7796 48.9797 24.7675 48.9921C24.3298 49.1779 23.4179 49.0912 22.8342 48.9921C23.4057 49.3514 24.0015 49.9831 24.7918 50.9865C24.804 50.9989 24.804 51.0113 24.804 51.0237C24.804 51.036 24.7918 51.0484 24.7796 51.0608C24.7675 51.0732 24.7553 51.0732 24.7432 51.0732C24.731 51.0732 24.7188 51.0608 24.7067 51.0484C23.9285 50.045 23.3449 49.4381 22.7734 49.0788C23.2112 49.5372 23.199 49.8964 23.1747 50.3547C23.1747 50.3671 23.1625 50.3795 23.1625 50.3919C23.1504 50.4043 23.1382 50.4043 23.126 50.4043C23.1139 50.4043 23.1017 50.3919 23.0896 50.3795C23.0774 50.3671 23.0774 50.3547 23.0774 50.3423C23.1017 49.7973 23.1139 49.4505 22.3965 48.8806C21.7886 48.6329 21.1563 48.6577 20.2566 48.8187C20.5484 48.9673 20.7794 49.1903 20.9496 49.4628C20.9496 49.4752 20.9618 49.4752 20.9618 49.4876C20.9618 49.5 20.9618 49.5 20.9618 49.5124C20.9618 49.5248 20.9618 49.5248 20.9496 49.5372L20.9375 49.5495C20.9253 49.5495 20.9253 49.5619 20.9131 49.5619C20.901 49.5619 20.901 49.5619 20.8888 49.5619C20.8767 49.5619 20.8767 49.5619 20.8645 49.5495L20.8523 49.5372C20.67 49.2399 20.3903 49.0045 20.062 48.8682C19.7945 48.9178 19.5149 48.9797 19.2109 49.0541C19.0772 49.339 18.992 49.6363 18.9556 49.9459C18.9677 50.0822 19.0164 50.2185 19.0772 50.3423C19.1501 50.4662 19.2352 50.5777 19.3446 50.652C20.4633 51.5191 20.5605 50.3052 21.5089 50.1937C22.2749 50.107 21.9588 50.8874 22.3236 51.5439C22.6883 52.1881 23.126 51.6678 23.4057 51.4572C23.6853 51.2466 23.8556 51.098 24.1474 51.6926C24.2203 51.8288 24.3176 51.9403 24.4392 52.0394C24.5608 52.1261 24.7067 52.1881 24.8526 52.2005C24.9985 52.2252 25.1566 52.2005 25.3025 52.1509C25.3997 52.089 25.5335 52.0023 25.6308 51.8908Z" fill="#005844"/>
<path d="M13.3747 49.7725C14.0191 49.661 14.5784 49.4504 14.5784 49.0788C14.5784 48.8311 14.165 48.6948 14.2744 48.2117C14.2744 48.1126 14.2623 48.0259 14.2258 47.9268C14.2136 47.9268 14.2015 47.9392 14.1893 47.9268C13.8367 47.8525 13.472 47.8029 13.1072 47.7905C12.6816 48.1002 12.3169 48.4842 12.0007 48.9054C12.0007 48.9178 11.9886 48.9178 11.9764 48.9178C11.9643 48.9178 11.9643 48.9178 11.9521 48.9178C11.9399 48.9178 11.9278 48.9178 11.9156 48.9054L11.9035 48.893C11.9035 48.893 11.8913 48.8806 11.8913 48.8682C11.8913 48.8559 11.8913 48.8559 11.8913 48.8435C11.8913 48.8311 11.8913 48.8311 11.9035 48.8187C12.1953 48.4223 12.5357 48.0754 12.9127 47.7658C12.2926 47.7905 11.6846 47.9144 11.101 48.1498C10.87 48.6205 10.566 49.0541 10.2134 49.4381C10.2134 49.4381 10.2012 49.4504 10.1891 49.4504C10.1769 49.4504 10.1769 49.4504 10.1648 49.4504C10.1526 49.4504 10.1526 49.4504 10.1404 49.4381C10.1283 49.4381 10.1283 49.4257 10.1283 49.4257C10.1283 49.4257 10.1161 49.4133 10.1161 49.4009C10.1161 49.3885 10.1161 49.3885 10.1161 49.3761C10.1161 49.3637 10.1161 49.3637 10.1283 49.3513C10.1283 49.339 10.1404 49.339 10.1404 49.339C10.4566 48.9921 10.7362 48.6081 10.9551 48.1869C10.3836 48.4099 9.77568 48.5338 9.16774 48.5462C8.99752 48.5462 8.83945 48.5338 8.66923 48.5214C8.65707 48.5214 8.64491 48.509 8.63275 48.4966C8.62059 48.4842 8.62059 48.4718 8.62059 48.4595C8.62059 48.4471 8.63275 48.4347 8.64491 48.4223C8.65707 48.4099 8.66923 48.4099 8.68139 48.4099C9.37444 48.4842 10.0796 48.3975 10.7241 48.1498C10.5295 48.0755 10.335 47.9763 10.1648 47.8649C9.99454 47.7658 9.81216 47.6667 9.62977 47.58C9.61762 47.58 9.61762 47.5676 9.61762 47.5676L9.60546 47.5552C9.60546 47.5428 9.60546 47.5428 9.60546 47.5304C9.60546 47.518 9.60546 47.518 9.60546 47.5056C9.60546 47.4932 9.61762 47.4809 9.62977 47.4809C9.64193 47.4809 9.65409 47.4809 9.66625 47.4809C9.86079 47.5676 10.0432 47.6667 10.2134 47.7658C10.4323 47.9268 10.6754 48.0259 10.9429 48.0754L11.0159 48.0507C11.6117 47.8153 12.2439 47.6791 12.8883 47.6543C12.4749 47.3941 11.7211 46.911 11.7211 46.911C11.7089 46.8987 11.6968 46.8863 11.6968 46.8739C11.6968 46.8615 11.6968 46.8491 11.7089 46.8367C11.7211 46.8243 11.7332 46.8119 11.7454 46.8119C11.7576 46.8119 11.7697 46.8119 11.7819 46.8243C11.794 46.8367 12.7789 47.4809 13.1072 47.6667C13.4233 47.6791 13.7273 47.7162 14.0313 47.7658C13.8975 47.6914 13.7759 47.5676 13.6908 47.4437C13.6057 47.3322 13.5449 47.1959 13.5084 47.0597C13.4841 46.9234 13.4841 46.7748 13.5084 46.6261C13.5571 46.5518 13.6057 46.4775 13.6665 46.4155C13.168 45.7838 12.1831 45.1025 11.7332 45.4246C11.0159 45.9324 11.3806 46.5394 10.9064 46.7995C10.7362 46.8986 10.5538 46.9482 10.3593 46.9358C10.1648 46.9234 9.98238 46.8615 9.82432 46.75C9.7392 46.7005 9.64193 46.6757 9.54466 46.6757C9.44739 46.6757 9.35012 46.7128 9.27717 46.7624C9.19206 46.8119 9.13126 46.8986 9.09479 46.9854C9.05831 47.0721 9.03399 47.1712 9.04615 47.2703C9.05831 47.8525 9.15558 47.8525 8.66923 47.902C8.21935 47.9516 7.34392 48.0135 7.21017 48.732C7.07642 49.4504 7.78164 49.6734 8.02481 49.6858C8.60843 49.723 9.16774 49.2522 9.36228 49.7725C9.55682 50.2804 9.56898 50.6768 9.93374 50.6644C10.6997 50.6396 10.7849 49.7725 11.3563 49.7354C11.6117 49.723 12.0129 50.0203 12.2196 50.2804C12.3898 50.0574 12.7424 49.884 13.3747 49.7725Z" fill="#005844"/>
<path d="M29.5702 52.9189C28.3421 52.4977 26.7615 51.804 26.7615 51.804C26.6278 51.9527 26.4575 52.0642 26.2751 52.1137C27.0776 52.5101 28.634 53.2286 28.634 53.2286C28.792 52.9685 29.3513 52.8817 29.5702 52.9189Z" fill="#005844"/>
<path d="M28.2084 53.9099C26.7615 53.7613 25.9469 54.5293 26.6643 54.616C28.0868 54.8018 29.0231 53.9842 28.2084 53.9099Z" fill="#005844"/>
<path d="M30.0809 53.179C29.4243 52.9313 28.634 53.3896 29.0474 53.6126C29.6067 53.9099 30.7374 53.4392 30.0809 53.179Z" fill="#005844"/>
<path d="M27.7099 53.6498C27.1871 53.4144 26.1536 52.9561 25.1931 52.4854C24.8405 52.6712 24.5122 52.8818 24.196 53.1171C25.0228 53.5631 25.8253 54.0338 26.1171 54.2072C26.3238 53.9966 26.5792 53.8356 26.8467 53.7365C27.1263 53.6374 27.4303 53.6126 27.7099 53.6498Z" fill="#005844"/>
<path d="M24.7189 0C20.2445 0 15.8673 1.35023 12.1467 3.88964C8.42609 6.42905 5.52014 10.0214 3.80574 14.2331C2.09135 18.4448 1.64148 23.0777 2.51691 27.5619C3.39234 32.0338 5.54445 36.1464 8.70574 39.3671C11.867 42.5878 15.9038 44.7928 20.2931 45.6723C24.6824 46.5642 29.2298 46.1059 33.3638 44.3592C37.4978 42.6126 41.036 39.652 43.5164 35.8615C46.009 32.0709 47.3343 27.6115 47.3343 23.0529C47.3343 20.0304 46.7507 17.0203 45.6077 14.2331C44.4648 11.4336 42.799 8.89414 40.7077 6.75113C38.6043 4.60811 36.1117 2.91104 33.3638 1.74662C30.6281 0.594595 27.6856 0 24.7189 0Z" fill="#AA8A00"/>
<path d="M45.7401 23.103C45.7663 11.2811 36.3864 1.67596 24.7893 1.64925C13.1923 1.62254 3.76982 11.1844 3.74358 23.0063C3.71734 34.8282 13.0973 44.4333 24.6943 44.4601C36.2914 44.4868 45.7139 34.9249 45.7401 23.103Z" fill="#00B5E2"/>
<path d="M24.7432 41.1881C34.5675 41.1881 42.5316 33.0742 42.5316 23.0653C42.5316 13.0564 34.5675 4.94256 24.7432 4.94256C14.919 4.94256 6.9549 13.0564 6.9549 23.0653C6.9549 33.0742 14.919 41.1881 24.7432 41.1881Z" fill="#EF3340"/>
<path d="M39.3084 23.1501C39.3602 14.9542 32.8806 8.26728 24.8359 8.21453C16.7912 8.16178 10.2277 14.7632 10.1759 22.9591C10.1241 31.1551 16.6037 37.842 24.6484 37.8947C32.6931 37.9475 39.2566 31.3461 39.3084 23.1501Z" fill="#509E2F"/>
<path d="M24.342 46.5394C24.6216 46.8243 24.8162 47.1836 24.8891 47.5924C25.2904 47.3446 25.874 46.6881 25.6794 46.3908C25.5457 46.1554 24.8405 46.205 24.342 46.5394Z" fill="#AA8A00"/>
<path d="M23.6732 46.9358C23.6489 46.9358 23.6246 46.9482 23.6003 46.9606C23.5759 46.973 23.5638 46.9977 23.5516 47.0225C23.5395 47.0473 23.5395 47.0721 23.5395 47.1092C23.5395 47.134 23.5638 47.1588 23.5759 47.1835C23.6003 47.2083 23.6246 47.2207 23.6489 47.2207C23.6732 47.2207 23.7097 47.2207 23.734 47.2083C23.7583 47.1959 23.7826 47.1836 23.7948 47.1588C23.807 47.134 23.8191 47.1092 23.8191 47.0845C23.8191 47.0473 23.807 47.0101 23.7826 46.9853C23.7462 46.9606 23.7097 46.9358 23.6732 46.9358Z" fill="#AA8A00"/>
<path d="M24.196 46.6509C24.196 46.6261 24.1839 46.6014 24.1717 46.5766C24.1596 46.5518 24.1352 46.5394 24.1109 46.527C24.0866 46.5146 24.0623 46.5146 24.0258 46.5146C24.0015 46.5146 23.9772 46.5394 23.9529 46.5518C23.9285 46.5766 23.9164 46.6014 23.9164 46.6261C23.9164 46.6509 23.9164 46.6881 23.9285 46.7128C23.9407 46.7376 23.9529 46.7624 23.9772 46.7748C24.0015 46.7872 24.0258 46.7995 24.0501 46.7995C24.0744 46.7995 24.0866 46.7996 24.0988 46.7872C24.1109 46.7748 24.1352 46.7748 24.1474 46.7624C24.1596 46.75 24.1717 46.7376 24.1717 46.7128C24.196 46.6881 24.196 46.6633 24.196 46.6509Z" fill="#AA8A00"/>
<path d="M24.1474 46.9977C24.1231 46.9977 24.0988 47.0101 24.0744 47.0225C24.0501 47.0349 24.038 47.0597 24.0258 47.0844C24.0136 47.1092 24.0136 47.134 24.0136 47.1712C24.0136 47.1959 24.038 47.2207 24.0501 47.2455C24.0744 47.2703 24.0988 47.2826 24.1231 47.2826C24.1474 47.2826 24.1839 47.2826 24.2082 47.2703C24.2325 47.2579 24.2568 47.2455 24.269 47.2207C24.2811 47.1959 24.2933 47.1712 24.2933 47.1464C24.2933 47.1216 24.2933 47.1092 24.2811 47.0968C24.269 47.0844 24.269 47.0597 24.2568 47.0473C24.2447 47.0349 24.2325 47.0225 24.2082 47.0225C24.1839 46.9977 24.1595 46.9977 24.1474 46.9977Z" fill="#AA8A00"/>
<path d="M24.4879 47.3446C24.4636 47.3446 24.4392 47.357 24.4149 47.3694C24.3906 47.3818 24.3784 47.4065 24.3663 47.4313C24.3541 47.4561 24.3541 47.4809 24.3541 47.518C24.3541 47.5428 24.3784 47.5676 24.3906 47.5923C24.4149 47.6171 24.4392 47.6295 24.4636 47.6295C24.4879 47.6295 24.5243 47.6295 24.5487 47.6171C24.573 47.6047 24.5973 47.5923 24.6095 47.5676C24.6216 47.5428 24.6338 47.518 24.6338 47.4932C24.6338 47.4561 24.6216 47.4189 24.5973 47.3941C24.5608 47.3694 24.5243 47.3446 24.4879 47.3446Z" fill="#AA8A00"/>
<path d="M24.0137 47.4189C23.9893 47.4189 23.965 47.4313 23.9407 47.4437C23.9164 47.4561 23.9042 47.4809 23.8921 47.5056C23.8799 47.5304 23.8799 47.5552 23.8799 47.5923C23.8799 47.6171 23.9042 47.6419 23.9164 47.6667C23.9407 47.6914 23.965 47.7038 23.9893 47.7038C24.0137 47.7038 24.0501 47.7038 24.0745 47.6914C24.0988 47.6791 24.1231 47.6667 24.1353 47.6419C24.1474 47.6171 24.1596 47.5923 24.1596 47.5676C24.1596 47.5304 24.1474 47.4932 24.1231 47.4685C24.0866 47.4437 24.0501 47.4189 24.0137 47.4189Z" fill="#AA8A00"/>
<path d="M19.1867 51.9156C18.8827 52.2129 18.7003 52.8198 18.98 53.0056C19.3204 53.2286 19.904 52.5845 19.904 52.5845C19.7217 52.312 19.4785 52.089 19.1867 51.9156Z" fill="#AA8A00"/>
<path d="M19.7946 51.6444C19.7946 51.6196 19.7825 51.5948 19.7703 51.5701C19.7581 51.5453 19.7338 51.5329 19.7095 51.5205C19.6852 51.5081 19.6609 51.5081 19.6244 51.5081C19.6001 51.5081 19.5757 51.5329 19.5514 51.5453C19.5271 51.5701 19.515 51.5948 19.515 51.6196C19.515 51.6444 19.515 51.6815 19.5271 51.7063C19.5393 51.7311 19.5514 51.7559 19.5757 51.7683C19.6001 51.7806 19.6244 51.793 19.6487 51.793C19.6852 51.793 19.7217 51.7806 19.746 51.7559C19.7824 51.7187 19.7946 51.6815 19.7946 51.6444Z" fill="#AA8A00"/>
<path d="M20.1107 51.4944C20.0864 51.4944 20.0621 51.5068 20.0378 51.5191C20.0135 51.5315 20.0013 51.5563 19.9891 51.5811C19.977 51.6059 19.977 51.6306 19.977 51.6678C19.977 51.6926 20.0013 51.7173 20.0135 51.7421C20.0378 51.7669 20.0621 51.7793 20.0864 51.7793C20.1107 51.7793 20.1472 51.7793 20.1715 51.7669C20.1958 51.7545 20.2202 51.7421 20.2323 51.7173C20.2445 51.6926 20.2566 51.6678 20.2566 51.643C20.2566 51.6059 20.2445 51.5687 20.2202 51.5439C20.1837 51.5192 20.1472 51.4944 20.1107 51.4944Z" fill="#AA8A00"/>
<path d="M20.0499 51.9775C20.0256 51.9775 20.0013 51.9899 19.977 52.0023C19.9526 52.0146 19.9405 52.0394 19.9283 52.0642C19.9162 52.089 19.9162 52.1137 19.9162 52.1509C19.9162 52.1757 19.9405 52.2005 19.9526 52.2252C19.977 52.25 20.0013 52.2624 20.0256 52.2624C20.0499 52.2624 20.0864 52.2624 20.1107 52.25C20.135 52.2376 20.1593 52.2252 20.1715 52.2005C20.1837 52.1757 20.1958 52.1509 20.1958 52.1261C20.1958 52.1014 20.1958 52.089 20.1837 52.0766C20.1715 52.0642 20.1715 52.0394 20.1593 52.027C20.1472 52.0147 20.135 52.0023 20.1107 52.0023C20.0864 51.9775 20.0742 51.9775 20.0499 51.9775Z" fill="#AA8A00"/>
<path d="M10.3837 50.9865C10.0554 51.643 10.1283 52.4234 10.3472 52.6092C10.6269 52.8446 11.4901 51.8412 11.5874 51.5563C11.2713 51.2342 10.8336 51.0236 10.3837 50.9865Z" fill="#AA8A00"/>
<path d="M10.8822 50.6768C10.8822 50.7016 10.8944 50.7263 10.9065 50.7511C10.9187 50.7759 10.943 50.7883 10.9673 50.8007C10.9916 50.8131 11.0159 50.8131 11.0524 50.8131C11.0767 50.8131 11.1011 50.7883 11.1254 50.7759C11.1497 50.7511 11.1619 50.7263 11.1619 50.7016C11.1619 50.6768 11.1619 50.6396 11.1497 50.6149C11.1375 50.5901 11.1254 50.5653 11.1011 50.5529C11.0767 50.5405 11.0524 50.5281 11.0281 50.5281C10.9916 50.5281 10.9552 50.5405 10.9308 50.5653C10.8944 50.6149 10.8822 50.6396 10.8822 50.6768Z" fill="#AA8A00"/>
<path d="M11.2956 50.5653C11.2956 50.5901 11.3077 50.6149 11.3199 50.6396C11.332 50.6644 11.3564 50.6768 11.3807 50.6892C11.405 50.7016 11.4293 50.7016 11.4658 50.7016C11.4901 50.7016 11.5144 50.6768 11.5387 50.6644C11.5631 50.6396 11.5752 50.6149 11.5752 50.5901C11.5752 50.5653 11.5752 50.5282 11.5631 50.5034C11.5509 50.4786 11.5387 50.4538 11.5144 50.4414C11.4901 50.4291 11.4658 50.4167 11.4415 50.4167C11.405 50.4167 11.3685 50.429 11.3442 50.4538C11.3077 50.491 11.2956 50.5282 11.2956 50.5653Z" fill="#AA8A00"/>
<path d="M11.5631 50.875C11.5388 50.875 11.5144 50.8874 11.4901 50.8998C11.4658 50.9121 11.4536 50.9369 11.4415 50.9617C11.4293 50.9865 11.4293 51.0112 11.4293 51.0484C11.4293 51.0732 11.4536 51.098 11.4658 51.1227C11.4901 51.1475 11.5144 51.1599 11.5388 51.1599C11.5631 51.1599 11.5995 51.1599 11.6239 51.1475C11.6482 51.1351 11.6725 51.1227 11.6847 51.098C11.6968 51.0732 11.709 51.0484 11.709 51.0236C11.709 50.9865 11.6968 50.9493 11.6725 50.9245C11.636 50.8874 11.5995 50.875 11.5631 50.875Z" fill="#AA8A00"/>
<path d="M11.9887 50.8998C11.9643 50.8998 11.94 50.9122 11.9157 50.9245C11.8914 50.9369 11.8792 50.9617 11.8671 50.9865C11.8549 51.0113 11.8549 51.036 11.8549 51.0732C11.8549 51.098 11.8792 51.1227 11.8914 51.1475C11.9157 51.1723 11.94 51.1847 11.9643 51.1847C11.9887 51.1847 12.0251 51.1847 12.0495 51.1723C12.0738 51.1599 12.0981 51.1475 12.1103 51.1227C12.1224 51.098 12.1346 51.0732 12.1346 51.0484C12.1346 51.0113 12.1224 50.9741 12.0981 50.9493C12.0616 50.9245 12.0251 50.8998 11.9887 50.8998Z" fill="#AA8A00"/>
<path d="M11.9887 50.4538C11.9887 50.429 11.9765 50.4043 11.9644 50.3795C11.9522 50.3547 11.9279 50.3423 11.9036 50.3299C11.8792 50.3175 11.8549 50.3175 11.8184 50.3175C11.7941 50.3175 11.7698 50.3423 11.7455 50.3547C11.7212 50.3795 11.709 50.4043 11.709 50.429C11.709 50.4538 11.709 50.491 11.7212 50.5157C11.7333 50.5405 11.7455 50.5653 11.7698 50.5777C11.7941 50.5901 11.8184 50.6025 11.8428 50.6025C11.8792 50.6025 11.9157 50.5901 11.94 50.5653C11.9765 50.5281 11.9887 50.491 11.9887 50.4538Z" fill="#AA8A00"/>
<path d="M11.247 49.9707C11.2226 49.9707 11.1983 49.9831 11.174 49.9955C11.1497 50.0079 11.1375 50.0327 11.1254 50.0574C11.1132 50.0822 11.1132 50.107 11.1132 50.1441C11.1132 50.1689 11.1375 50.1937 11.1497 50.2185C11.174 50.2432 11.1983 50.2556 11.2226 50.2556C11.247 50.2556 11.2834 50.2556 11.3078 50.2432C11.3321 50.2309 11.3564 50.2185 11.3686 50.1937C11.3807 50.1689 11.3929 50.1441 11.3929 50.1194C11.3929 50.0822 11.3807 50.045 11.3564 50.0203C11.3199 49.9831 11.2834 49.9707 11.247 49.9707Z" fill="#AA8A00"/>
<path d="M5.72682 45.1409C5.71466 45.4877 6.54146 45.8098 7.23451 45.8222C7.31962 45.4258 7.31962 45.0046 7.23451 44.6082C6.62657 44.5586 5.72682 44.794 5.72682 45.1409Z" fill="#AA8A00"/>
<path d="M7.56276 45.7962C7.53845 45.7962 7.51413 45.8086 7.48981 45.8209C7.46549 45.8333 7.45333 45.8581 7.44118 45.8829C7.42902 45.9077 7.42902 45.9324 7.42902 45.9696C7.42902 45.9944 7.45333 46.0191 7.46549 46.0439C7.48981 46.0687 7.51413 46.0811 7.53845 46.0811C7.56276 46.0811 7.59924 46.0811 7.62356 46.0687C7.64788 46.0563 7.67219 46.0439 7.68435 46.0191C7.69651 45.9944 7.70867 45.9696 7.70867 45.9448C7.70867 45.9077 7.69651 45.8705 7.67219 45.8457C7.63572 45.8209 7.59924 45.7962 7.56276 45.7962Z" fill="#AA8A00"/>
<path d="M7.96398 45.5608C7.93966 45.5608 7.91534 45.5732 7.89102 45.5856C7.86671 45.598 7.85455 45.6227 7.84239 45.6475C7.83023 45.6723 7.83023 45.6971 7.83023 45.7342C7.83023 45.759 7.85455 45.7838 7.86671 45.8086C7.89102 45.8333 7.91534 45.8457 7.93966 45.8457C7.96398 45.8457 8.00045 45.8457 8.02477 45.8333C8.04909 45.8209 8.07341 45.8086 8.08557 45.7838C8.09772 45.759 8.10988 45.7342 8.10988 45.7095C8.10988 45.6723 8.09773 45.6351 8.07341 45.6104C8.03693 45.5732 8.00045 45.5608 7.96398 45.5608Z" fill="#AA8A00"/>
<path d="M8.35308 45.3007C8.32876 45.3007 8.30444 45.3131 8.28012 45.3255C8.25581 45.3378 8.24365 45.3626 8.23149 45.3874C8.21933 45.4122 8.21933 45.4369 8.21933 45.4741C8.21933 45.4989 8.24365 45.5237 8.25581 45.5484C8.28012 45.5732 8.30444 45.5856 8.32876 45.5856C8.35308 45.5856 8.38955 45.5856 8.41387 45.5732C8.43819 45.5608 8.46251 45.5484 8.47467 45.5236C8.48682 45.4989 8.49898 45.4741 8.49898 45.4493C8.49898 45.4122 8.48682 45.375 8.46251 45.3502C8.42603 45.3131 8.38955 45.3007 8.35308 45.3007Z" fill="#AA8A00"/>
<path d="M7.62352 45.2387C7.59921 45.2387 7.57489 45.2511 7.55057 45.2635C7.52625 45.2759 7.51409 45.3007 7.50194 45.3255C7.48978 45.3502 7.48978 45.375 7.48978 45.4122C7.48978 45.4369 7.51409 45.4617 7.52625 45.4865C7.55057 45.5113 7.57489 45.5237 7.59921 45.5237C7.62352 45.5237 7.66 45.5237 7.68432 45.5113C7.70864 45.4989 7.73295 45.4865 7.74511 45.4617C7.75727 45.4369 7.76943 45.4122 7.76943 45.3874C7.76943 45.3502 7.75727 45.3131 7.73295 45.2883C7.69648 45.2511 7.66 45.2387 7.62352 45.2387Z" fill="#AA8A00"/>
<path d="M8.0248 44.9414C8.00048 44.9414 7.97616 44.9538 7.95185 44.9662C7.92753 44.9786 7.91537 45.0034 7.90321 45.0281C7.89105 45.0529 7.89105 45.0777 7.89105 45.1149C7.89105 45.1396 7.91537 45.1644 7.92753 45.1892C7.95185 45.214 7.97616 45.2263 8.00048 45.2263C8.0248 45.2263 8.06128 45.2263 8.08559 45.214C8.10991 45.2016 8.13423 45.1892 8.14639 45.1644C8.15855 45.1396 8.1707 45.1149 8.1707 45.0901C8.1707 45.0529 8.15855 45.0158 8.13423 44.991C8.09775 44.9662 8.06128 44.9414 8.0248 44.9414Z" fill="#AA8A00"/>
<path d="M7.66005 44.5946C7.63573 44.5946 7.61142 44.607 7.5871 44.6194C7.56278 44.6318 7.55062 44.6565 7.53846 44.6813C7.52631 44.7061 7.52631 44.7309 7.52631 44.768C7.52631 44.7928 7.55062 44.8176 7.56278 44.8423C7.5871 44.8671 7.61142 44.8795 7.63573 44.8795C7.66005 44.8795 7.69653 44.8795 7.72085 44.8671C7.74516 44.8547 7.76948 44.8423 7.78164 44.8176C7.7938 44.7928 7.80596 44.768 7.80596 44.7432C7.80596 44.7061 7.7938 44.6689 7.76948 44.6441C7.733 44.6194 7.69653 44.5946 7.66005 44.5946Z" fill="#AA8A00"/>
<path d="M1.71442 33.6565C1.24023 33.2478 0.352635 33.2601 0.231047 33.4459C0.0973002 33.6689 0.583653 34.2511 1.04569 34.598C1.32534 34.3131 1.5442 34.0034 1.71442 33.6565Z" fill="#AA8A00"/>
<path d="M1.27672 34.7342C1.24025 34.7342 1.20377 34.7466 1.17945 34.7714C1.15513 34.7962 1.14297 34.8333 1.14297 34.8705C1.14297 34.9077 1.15513 34.9448 1.17945 34.9696C1.20377 34.9944 1.24025 35.0068 1.27672 35.0068C1.3132 35.0068 1.34967 34.9944 1.37399 34.9696C1.39831 34.9448 1.41047 34.9077 1.41047 34.8705C1.41047 34.8333 1.39831 34.7962 1.37399 34.7714C1.34967 34.759 1.3132 34.7342 1.27672 34.7342Z" fill="#AA8A00"/>
<path d="M1.71447 34.7342C1.67799 34.7342 1.64151 34.7466 1.6172 34.7714C1.59288 34.7962 1.58072 34.8333 1.58072 34.8705C1.58072 34.9077 1.59288 34.9448 1.6172 34.9696C1.64151 34.9944 1.67799 35.0068 1.71447 35.0068C1.75094 35.0068 1.78742 34.9944 1.81174 34.9696C1.83605 34.9448 1.84821 34.9077 1.84821 34.8705C1.84821 34.8333 1.83605 34.7962 1.81174 34.7714C1.78742 34.759 1.75094 34.7342 1.71447 34.7342Z" fill="#AA8A00"/>
<path d="M1.67794 34.536C1.71441 34.536 1.75089 34.5236 1.77521 34.4989C1.79952 34.4741 1.81168 34.4369 1.81168 34.3998C1.81168 34.3626 1.79952 34.3254 1.77521 34.3007C1.75089 34.2759 1.71441 34.2635 1.67794 34.2635C1.64146 34.2635 1.60498 34.2759 1.58067 34.3007C1.55635 34.3254 1.54419 34.3626 1.54419 34.3998C1.54419 34.4245 1.54419 34.4369 1.55635 34.4493C1.56851 34.4617 1.56851 34.4865 1.58067 34.4989C1.59282 34.5113 1.60498 34.5236 1.6293 34.5236C1.64146 34.536 1.66578 34.536 1.67794 34.536Z" fill="#AA8A00"/>
<path d="M2.17644 34.2635C2.13996 34.2635 2.10349 34.2759 2.07917 34.3007C2.05485 34.3254 2.04269 34.3626 2.04269 34.3998C2.04269 34.4369 2.05485 34.4741 2.07917 34.4989C2.10349 34.5236 2.13996 34.536 2.17644 34.536C2.21292 34.536 2.24939 34.5236 2.27371 34.4989C2.29803 34.4741 2.31019 34.4369 2.31019 34.3998C2.31019 34.3626 2.29803 34.3254 2.27371 34.3007C2.24939 34.2883 2.21292 34.2635 2.17644 34.2635Z" fill="#AA8A00"/>
<path d="M2.17646 33.8795C2.17646 33.8547 2.17646 33.8423 2.1643 33.83C2.15214 33.8176 2.15214 33.7928 2.13998 33.7804C2.12783 33.768 2.11567 33.7556 2.09135 33.7556C2.07919 33.7432 2.05487 33.7432 2.04271 33.7432C2.00624 33.7432 1.96976 33.7556 1.94544 33.7804C1.92112 33.8052 1.90897 33.8423 1.90897 33.8795C1.90897 33.9167 1.92112 33.9538 1.94544 33.9786C1.96976 34.0034 2.00624 34.0158 2.04271 34.0158C2.07919 34.0158 2.11567 34.0034 2.13998 33.9786C2.1643 33.9538 2.17646 33.9167 2.17646 33.8795Z" fill="#AA8A00"/>
<path d="M42.6287 16.3513C43.0908 16.3513 43.4555 15.9673 43.4555 15.509C43.4555 15.0383 43.0786 14.6667 42.6287 14.6667C42.1667 14.6667 41.8019 15.0507 41.8019 15.509C41.8019 15.9797 42.1789 16.3513 42.6287 16.3513Z" fill="#AA8A00"/>
<path d="M32.4639 5.61149C32.6098 5.54955 32.7436 5.43806 32.8409 5.3018C32.9381 5.16554 32.9868 5.0045 32.9868 4.83108C32.9868 4.65766 32.9381 4.49662 32.8409 4.36036C32.7436 4.2241 32.622 4.11261 32.4639 4.05068C32.318 3.98874 32.1478 3.96396 31.9898 4.00113C31.8317 4.03829 31.6858 4.11261 31.5642 4.23649C31.4426 4.36036 31.3697 4.50901 31.3332 4.67004C31.2967 4.83108 31.321 5.0045 31.3818 5.15315C31.4669 5.36374 31.625 5.52477 31.8317 5.61149C32.0384 5.6982 32.2694 5.6982 32.4639 5.61149Z" fill="#AA8A00"/>
<path d="M17.6424 5.61149C17.7883 5.54955 17.922 5.43806 18.0193 5.3018C18.1166 5.16554 18.1652 5.0045 18.1652 4.83108C18.1652 4.65766 18.1166 4.49662 18.0193 4.36036C17.922 4.2241 17.8004 4.11261 17.6424 4.05068C17.4965 3.98874 17.3263 3.96396 17.1682 4.00113C17.0101 4.03829 16.8642 4.11261 16.7426 4.23649C16.621 4.36036 16.5481 4.50901 16.5116 4.67004C16.4751 4.83108 16.4995 5.0045 16.5602 5.15315C16.6454 5.36374 16.8034 5.52477 17.0101 5.61149C17.2047 5.6982 17.4357 5.6982 17.6424 5.61149Z" fill="#AA8A00"/>
<path d="M6.84536 16.3513C7.3074 16.3513 7.67216 15.9673 7.67216 15.509C7.67216 15.0383 7.29524 14.6667 6.84536 14.6667C6.39549 14.6667 6.01857 15.0507 6.01857 15.509C6.00641 15.9797 6.38333 16.3513 6.84536 16.3513Z" fill="#AA8A00"/>
<path d="M6.84536 31.464C7.3074 31.464 7.67216 31.08 7.67216 30.6216C7.67216 30.1509 7.29524 29.7793 6.84536 29.7793C6.39549 29.7793 6.01857 30.1633 6.01857 30.6216C6.00641 31.08 6.38333 31.464 6.84536 31.464Z" fill="#AA8A00"/>
<path d="M17.0101 40.5191C16.8642 40.5811 16.7304 40.6926 16.6332 40.8288C16.5481 40.9651 16.4873 41.1261 16.4873 41.2995C16.4873 41.4606 16.5359 41.634 16.6332 41.7703C16.7304 41.9065 16.852 42.018 17.0101 42.08C17.156 42.1419 17.3262 42.1667 17.4843 42.1295C17.6424 42.0923 17.7883 42.018 17.9099 41.8941C18.0314 41.7703 18.1044 41.6216 18.1409 41.4606C18.1773 41.2996 18.153 41.1261 18.0922 40.9775C18.0071 40.7669 17.8491 40.6059 17.6424 40.5191C17.4357 40.4324 17.2046 40.4324 17.0101 40.5191Z" fill="#AA8A00"/>
<path d="M31.8317 40.5192C31.6858 40.5811 31.5521 40.6926 31.4548 40.8288C31.3697 40.9651 31.3089 41.1261 31.3089 41.2996C31.3089 41.4606 31.3575 41.634 31.4548 41.7703C31.5521 41.9065 31.6737 42.018 31.8317 42.08C31.9776 42.1419 32.1479 42.1667 32.3059 42.1295C32.464 42.0923 32.6099 42.018 32.7315 41.8942C32.8531 41.7703 32.926 41.6216 32.9625 41.4606C32.999 41.2996 32.9747 41.1261 32.9139 40.9775C32.8774 40.8784 32.8166 40.7793 32.7315 40.705C32.6585 40.6306 32.5613 40.5687 32.464 40.5192C32.3667 40.482 32.2573 40.4572 32.1479 40.4572C32.0384 40.4572 31.929 40.4696 31.8317 40.5192Z" fill="#AA8A00"/>
<path d="M42.6287 31.464C43.0908 31.464 43.4555 31.08 43.4555 30.6216C43.4555 30.1509 43.0786 29.7793 42.6287 29.7793C42.1667 29.7793 41.8019 30.1633 41.8019 30.6216C41.8019 31.08 42.1789 31.464 42.6287 31.464Z" fill="#AA8A00"/>
<path d="M45.7171 22.9414L35.1876 18.5687L39.4797 7.8412L29.0109 12.3378L24.5973 1.6599L20.3052 12.3874L9.77568 8.01463L14.1893 18.6926L3.70844 23.1768L14.238 27.5495L9.9459 38.277L20.4268 33.7804L24.8283 44.4583L29.1203 33.7308L39.6499 38.1036L35.2362 27.438L45.7171 22.9414Z" fill="#AA8A00"/>
<path fill-rule="evenodd" clip-rule="evenodd" d="M28.6948 32.7151L38.2152 36.6666L34.2271 27.0169L43.6988 22.9538L34.1906 19.0022L38.0693 9.30291L28.5976 13.366L24.6095 3.70381L20.7308 13.4031L11.2105 9.45156L15.1985 19.1013L5.72684 23.1644L15.2472 27.116L11.3564 36.8153L20.8402 32.7522L24.8162 42.4144L28.6948 32.7151Z" fill="white"/>
<path d="M25.7767 27.0045C25.7767 23.0653 24.1839 22.0495 24.1839 18.1599C24.2203 16.6363 24.5121 15.125 25.0471 13.7128C24.7188 17.6644 27.9896 20.1667 27.9896 25.4313C27.9896 28.7635 26.7129 30.6836 25.7523 30.6836C25.1444 30.6836 25.1809 30.2748 24.8648 30.2748C24.5486 30.2748 24.269 30.7579 23.6367 30.7579C22.9923 30.7579 20.9131 29.705 20.5727 25.0349C20.2079 25.9887 20.5119 27.339 20.7064 28.0574C19.4176 25.6914 19.4784 22.8423 21.3752 19.9313C21.0104 22.9662 21.2414 25.4065 22.1533 27.6239C22.3479 28.0946 22.6883 28.3423 22.9923 28.0946C23.2963 27.8468 22.9923 27.3637 22.7613 26.8311C22.5303 26.2984 19.9891 20.6002 23.8069 15.9178C23.3692 20.018 24.9863 22.5822 24.9863 24.5022C24.9863 26.4223 23.8556 28.9989 24.9499 28.9989C25.6186 28.9865 25.7767 27.6486 25.7767 27.0045Z" fill="#EF3340"/>
<path d="M27.1385 29.8536C28.0747 29.1475 28.8407 28.2309 29.3757 27.1779C29.9107 26.125 30.1904 24.9606 30.2147 23.7714C30.2147 20.4764 26.9561 17.8007 26.409 15.893C26.409 18.9403 28.4517 20.8604 28.4517 24.9482C28.4395 28.7387 27.1385 29.8536 27.1385 29.8536Z" fill="#EF3340"/>
<path d="M23.6854 51.5068C23.6246 51.5191 23.5638 51.5439 23.5273 51.5935C23.4787 51.6306 23.43 51.6802 23.3814 51.7297C23.2233 51.9403 22.9802 52.0642 22.7248 52.1013C22.6397 52.1013 22.5668 52.0766 22.4938 52.0518C22.4209 52.0146 22.3479 51.9651 22.2993 51.9031C21.2415 52.4234 20.2688 52.9932 19.5271 53.4392C19.8432 53.4516 20.1472 53.5507 20.4147 53.7241C21.1807 53.2038 22.5181 52.4606 23.8921 51.7173C23.7826 51.5563 23.7097 51.5068 23.6854 51.5068Z" fill="#FFC600"/>
<path d="M27.3574 49.8097C26.871 49.9583 26.3239 50.1442 25.7646 50.3671C25.8618 50.4786 25.9348 50.6025 25.9834 50.7387C26.64 50.4538 27.2358 50.2185 27.7586 50.0451C27.6005 50.0079 27.4668 49.9212 27.3574 49.8097Z" fill="#FFC600"/>
<path d="M20.9496 53.9842C21.4846 53.8604 22.0317 53.9099 22.5424 54.0957C23.2719 53.4764 24.038 52.9065 24.8404 52.3987C24.5851 52.3739 24.3541 52.2624 24.1595 52.1014C23.0409 52.6464 21.971 53.2782 20.9496 53.9842Z" fill="#FFC600"/>
<path d="M25.5943 48.4099C26.1415 47.6667 26.7373 46.9854 27.406 46.3536C26.5549 46.6137 25.7038 47.2579 25.035 47.8401C25.1931 47.9268 25.339 48.0507 25.4484 48.1869C25.5092 48.2613 25.5579 48.3356 25.5943 48.4099Z" fill="#FFC600"/>
<path d="M46.9694 34.6351C47.468 34.0282 47.5409 33.4955 47.5409 31.5011C47.2248 32.0338 46.325 33.2725 46.1791 33.8547C45.8873 34.9696 46.4831 35.2545 46.9694 34.6351Z" fill="#FFC600"/>
<path d="M46.5561 36.6791C47.0546 36.2207 47.4558 35.4032 47.6382 34.5237C47.0546 35.2545 46.4102 35.2669 45.9846 35.7376C45.17 36.6419 46.0576 37.1374 46.5561 36.6791Z" fill="#FFC600"/>
<path d="M45.8022 35.3412C45.9238 34.9448 45.6563 34.1149 45.7657 33.4831C45.2307 34.0901 44.8538 35.2173 45.0848 35.7376C45.3037 36.2703 45.6806 35.7252 45.8022 35.3412Z" fill="#FFC600"/>
<path d="M44.6229 37.1374C45.0727 36.6543 44.3797 35.6013 44.6836 34.2387C44.6836 34.2387 43.7717 35.7376 43.6745 36.295C43.3462 38.1284 44.1608 37.6205 44.6229 37.1374Z" fill="#FFC600"/>
<path d="M45.4132 38.5248C45.8752 38.4876 46.4467 37.9426 47.0424 36.8029C46.5683 37.3604 45.3281 37.1374 44.9633 37.5586C44.8782 37.6453 44.8174 37.7444 44.7931 37.8683C44.7688 37.9921 44.7809 38.1036 44.8296 38.2151C44.8782 38.3266 44.9633 38.4133 45.0606 38.4752C45.1822 38.5248 45.3037 38.5496 45.4132 38.5248Z" fill="#FFC600"/>
<path d="M43.8325 39.9865C43.5164 40.3705 43.1395 40.7545 42.8477 41.0394C42.1668 41.5225 41.2792 41.5101 40.7928 41.8694C40.0025 42.464 40.501 42.786 41.0725 42.6498C41.4737 42.5507 41.9114 42.2286 42.7504 41.2376C43.1395 40.866 43.5164 40.482 43.8568 40.0732C43.9176 40.2095 44.0271 40.3333 44.1608 40.3953C44.2946 40.4572 44.4526 40.4696 44.5985 40.4201C45.1822 40.2714 45.4618 40.0732 46.5439 38.4133C46.1305 38.6487 44.708 38.6858 44.1365 39.2804C44.0392 39.3671 43.9541 39.4786 43.9055 39.5901C43.8447 39.7264 43.8204 39.8502 43.8325 39.9865Z" fill="#FFC600"/>
<path d="M39.3581 42.5259C39.4189 41.8446 39.2244 41.9437 39.8445 40.7793C39.577 40.9775 38.4705 41.857 38.4705 42.7365C38.4827 43.9257 39.2973 43.2072 39.3581 42.5259Z" fill="#FFC600"/>
<path d="M37.7166 44.0743C38.2759 43.5169 37.8869 42.9223 38.4462 41.8322C38.4462 41.8322 37.4856 42.5383 37.1452 43.3682C36.7804 44.2106 37.1452 44.6318 37.7166 44.0743Z" fill="#FFC600"/>
<path d="M36.3427 45.0901C37.0479 44.3592 36.5616 43.8018 36.9993 42.9099C36.6224 43.3063 36.0752 43.7027 35.7348 44.3221C35.3457 45.0529 35.6375 45.8209 36.3427 45.0901Z" fill="#FFC600"/>
<path d="M34.6526 46.2297C35.4672 45.4865 34.9444 44.7185 35.9293 43.5417C35.3092 43.8513 34.2027 44.8423 33.8501 45.5608C33.4975 46.2793 33.838 46.9854 34.6526 46.2297Z" fill="#FFC600"/>
<path d="M32.841 47.134C33.4124 46.5518 33.4732 45.5484 34.1784 44.3221C33.7772 44.5822 32.464 45.3502 31.9412 46.2421C31.3211 47.295 32.2695 47.7162 32.841 47.134Z" fill="#FFC600"/>
<path d="M30.5916 48.2489C31.7345 47.1216 31.2238 46.7624 32.0993 45.2635C31.1387 45.8457 30.3119 46.6385 29.6675 47.58C29.3635 48.0878 29.5702 49.2647 30.5916 48.2489Z" fill="#FFC600"/>
<path d="M27.564 48.7815C27.175 49.6363 27.8802 50.0574 28.4638 49.5C29.0474 48.9426 29.2784 47.518 30.4943 45.7714C29.6675 46.2669 28.1477 47.5056 27.564 48.7815Z" fill="#FFC600"/>
<path d="M26.7008 49.7478C27.6856 48.7196 27.4303 47.8773 28.9745 46.1926C27.795 46.6261 26.0077 48.0507 25.5213 49.0912C25.0715 50.0822 26.0442 50.4291 26.7008 49.7478Z" fill="#FFC600"/>
<path d="M20.8523 54.2196C20.1471 54.5541 21.2414 54.8761 22.129 54.554C23.0288 54.232 21.4481 53.9471 20.8523 54.2196Z" fill="#FFC600"/>
<path d="M19.2352 53.6498C18.4206 53.848 19.2596 54.1948 19.8675 54.0586C20.4633 53.9347 19.7459 53.5383 19.2352 53.6498Z" fill="#FFC600"/>
<path d="M31.5157 54.3435C32.4032 54.3682 33.2908 54.1948 34.1176 53.8232C33.7529 53.7613 33.4003 53.6622 33.0598 53.5507C32.6099 53.9347 32.075 54.2072 31.5157 54.3435Z" fill="#FFC600"/>
<path d="M33.3516 50.9741C32.9747 51.2342 32.5978 51.4696 32.1965 51.6802C33.8501 51.8784 35.528 51.9403 37.1938 51.8784C37.4613 51.5315 37.668 51.1599 37.8261 50.7511C36.3427 50.9369 34.8472 51.0113 33.3516 50.9741Z" fill="#FFC600"/>
<path d="M35.7226 52.7083C35.7591 52.7207 36.7926 52.1137 36.7926 52.1137H36.1847C36.0144 52.2996 35.8564 52.4978 35.7226 52.7083Z" fill="#FFC600"/>
<path d="M35.9536 49.8097L35.6861 49.8964C35.1876 50.0574 34.7377 50.1937 34.3121 50.3176C35.1754 50.3919 36.2332 50.2061 37.5342 49.8345C36.9749 49.7973 36.4278 49.6486 35.9293 49.4257C35.6496 49.3018 35.3335 49.2894 35.0417 49.3885L34.9687 49.4133C34.3365 49.6363 33.692 49.8097 33.0355 49.9459C33.3516 50.1194 33.692 50.2432 34.0446 50.2928C34.531 50.1565 35.066 49.9831 35.6739 49.7973L35.9414 49.7106C35.9536 49.7106 35.9657 49.7106 35.9901 49.7106C36.0022 49.723 36.0144 49.7354 36.0144 49.7477C36.0144 49.7601 36.0144 49.7725 36.0144 49.7973C35.9779 49.7973 35.9657 49.7973 35.9536 49.8097Z" fill="#FFC600"/>
<path d="M38.5434 46.4032C38.8596 46.2669 39.1757 46.1183 39.4797 45.9572C39.2122 45.9077 38.9325 45.8829 38.6529 45.8829C38.3732 46.0439 38.0692 46.1802 37.7531 46.2917C37.7045 46.3536 37.6802 46.4155 37.6437 46.4899C37.8625 46.5394 38.0936 46.527 38.3124 46.4775C38.3367 46.4651 38.4218 46.4403 38.5434 46.4032Z" fill="#FFC600"/>
<path d="M39.6499 45.982C39.4675 46.0935 39.2851 46.1802 39.1149 46.2669C38.6407 46.5642 38.1665 46.8491 37.668 47.0845C37.7774 47.3074 38.0328 47.4561 38.4462 47.4561C39.3216 47.4561 40.1849 47.0473 41.7047 46.1059C41.0238 46.205 40.3308 46.1554 39.6499 45.982Z" fill="#FFC600"/>
<path d="M41.2305 44.4212C41.0116 44.3964 40.8171 44.384 40.6226 44.384C40.27 44.5946 39.9052 44.7804 39.5283 44.9414C39.4918 45.0405 39.4918 45.1644 39.5161 45.2635C40.1119 45.0405 40.6834 44.7556 41.2305 44.4212Z" fill="#FFC600"/>
<path d="M41.413 44.4336C40.8293 44.8176 40.2092 45.1273 39.5648 45.375C39.6378 45.5237 39.7715 45.6475 39.9417 45.6971C40.1241 45.5856 40.3187 45.4741 40.5375 45.3378C40.5497 45.3255 40.5618 45.3255 40.574 45.3378C40.5862 45.3378 40.5983 45.3502 40.6105 45.3626C40.6226 45.375 40.6226 45.3874 40.6226 45.3998C40.6226 45.4122 40.6105 45.4246 40.5983 45.4369C40.4159 45.5484 40.2457 45.6475 40.0877 45.7466C40.2092 45.7714 40.3187 45.7714 40.4403 45.759C41.8872 45.5732 42.568 45.0158 43.6015 44.2106C42.8842 44.4336 42.1425 44.5079 41.413 44.4336Z" fill="#FFC600"/>
<path d="M42.7626 42.6374C42.6896 42.6869 42.6167 42.7241 42.5437 42.7613C42.1789 43.0709 41.7899 43.3559 41.3765 43.5788C41.3765 43.6655 41.4008 43.7399 41.4373 43.8142C41.8385 43.5912 42.2154 43.3311 42.5559 43.0338C42.568 43.0214 42.5802 43.0214 42.5923 43.0214C42.6045 43.0214 42.6167 43.0338 42.6288 43.0462C42.641 43.0586 42.641 43.0709 42.641 43.0833C42.641 43.0957 42.6288 43.1081 42.6167 43.1205C42.2762 43.4178 41.8993 43.6903 41.4981 43.9009C41.5953 43.9752 41.7169 44.0124 41.8385 44.0248C41.9601 44.0372 42.0817 44.0248 42.2033 43.9876C43.5651 43.6779 44.5621 42.464 44.5621 42.464C43.9785 42.6126 43.3705 42.6745 42.7626 42.6374Z" fill="#FFC600"/>
<path d="M42.726 41.8818C42.7504 41.9809 42.799 42.0676 42.8598 42.1295C42.9206 42.2038 43.0057 42.2534 43.103 42.2782C43.4191 42.0552 43.7595 41.7827 44.2337 41.3739C44.2459 41.3615 44.2581 41.3615 44.2702 41.3615C44.2824 41.3615 44.2945 41.3739 44.3067 41.3863C44.3188 41.3986 44.3188 41.411 44.3188 41.4234C44.3188 41.4358 44.3067 41.4482 44.2945 41.4606C43.869 41.8322 43.5407 42.1047 43.2367 42.3153C43.3583 42.3277 43.4677 42.3277 43.5893 42.3029C44.1729 42.1791 44.6593 41.795 45.8022 40.5068C45.1578 40.5563 44.5134 40.6554 43.8811 40.7917C43.5285 41.1881 43.1394 41.5473 42.726 41.8818Z" fill="#FFC600"/>
<path d="M43.6988 40.8412C43.5285 40.8784 43.3583 40.9527 43.2003 41.0394C43.0787 41.1137 42.9692 41.2128 42.8841 41.3367C42.799 41.4606 42.7504 41.5968 42.7139 41.7331C43.0665 41.4606 43.3826 41.1633 43.6988 40.8412Z" fill="#FFC600"/>
<path d="M42.6166 38.0664L42.6288 38.0788C42.6288 38.0912 42.6288 38.0912 42.6409 38.1036C42.6409 38.116 42.6409 38.116 42.6409 38.1284C42.6409 38.1408 42.6409 38.1408 42.6288 38.1531C42.4585 38.3761 42.2883 38.5743 42.1302 38.7477C42.1302 38.8345 42.1424 38.9088 42.1789 38.9831C42.2154 39.0574 42.2518 39.1317 42.3126 39.1813C42.6288 38.7973 42.9814 38.3761 43.2367 38.0912C43.2853 37.6205 43.2489 37.0507 43.261 36.5428C42.9449 36.8525 42.1667 37.8682 42.1302 38.5867C42.264 38.4381 42.3977 38.2646 42.5315 38.0912L42.5436 38.0788C42.5558 38.0788 42.5558 38.0664 42.568 38.0664C42.5801 38.0664 42.5801 38.0664 42.5923 38.0664C42.6044 38.0664 42.6166 38.0664 42.6166 38.0664Z" fill="#FFC600"/>
<path d="M42.9693 38.9583C43.1152 38.7601 43.2003 38.5248 43.2246 38.2894C42.9814 38.5619 42.6896 38.9088 42.4343 39.2309C42.5437 39.2433 42.6531 39.2185 42.7382 39.1689C42.8233 39.1318 42.9085 39.0574 42.9693 38.9583Z" fill="#FFC600"/>
<path d="M39.6499 42.9966C38.8474 43.4673 39.2 43.8513 39.8687 43.8266C40.5375 43.8018 41.2184 43.5788 42.3856 42.6374C41.571 42.9595 40.3429 42.6002 39.6499 42.9966Z" fill="#FFC600"/>
<path d="M37.8383 44.2477C37.3884 44.6441 37.5586 45.0777 38.1422 45.0777C38.738 45.0777 39.3095 44.9662 40.6956 44.1486C39.3824 44.2849 38.5313 43.6531 37.8383 44.2477Z" fill="#FFC600"/>
<path d="M39.1392 45.4122C38.1665 45.5237 36.8898 44.991 36.4035 45.3255C36.0995 45.536 36.0509 45.9944 36.598 46.143C37.4248 46.3784 38.0449 46.0811 39.1392 45.4122Z" fill="#FFC600"/>
<path d="M28.8286 49.6734C27.9045 49.7601 27.7221 50.9989 29.0961 51.1599C30.47 51.3209 32.0628 51.0856 33.8137 50.4043C31.6859 50.6025 29.9836 49.5619 28.8286 49.6734Z" fill="#FFC600"/>
<path d="M39.7228 42.2782C39.9052 42.4392 40.2456 42.2286 40.6226 41.7083C40.9995 41.1881 40.4766 40.6678 41.9235 38.9088C41.3278 39.491 40.7685 40.1228 40.2578 40.7917C39.7593 41.473 39.5404 42.1171 39.7228 42.2782Z" fill="#FFC600"/>
<path d="M41.2427 40.5191C40.732 41.2252 41.4494 41.6959 41.9722 41.1757C42.1668 40.9775 42.3248 40.7545 42.4708 40.5191C42.9206 40.1227 43.7231 39.3052 44.2946 38.6734L44.3067 38.661V38.6486V38.6363C44.3067 38.6363 44.3067 38.6239 44.2946 38.6239C44.2946 38.6239 44.2824 38.6239 44.2824 38.6115H44.2703H44.2581C44.2581 38.6115 44.2459 38.6115 44.2459 38.6239C43.7353 39.1813 43.0665 39.8626 42.6167 40.2962C42.7869 40.0113 42.9571 39.6768 43.1516 39.2928C43.5772 38.8468 43.9663 38.3637 44.3067 37.8559V37.8435V37.8311V37.8187L44.2946 37.8063H44.2824H44.2703H44.2581L44.2459 37.8187C43.9055 38.3266 43.5286 38.7973 43.1152 39.2432C42.7747 39.3795 41.6926 39.9122 41.2427 40.5191Z" fill="#FFC600"/>
<path d="M26.4941 50.9369C28.5246 51.8784 32.8531 53.4268 34.3608 53.6374C34.5189 52.8694 34.6648 52.1633 34.6648 52.1633C31.6251 51.9032 29.6067 51.643 26.9926 50.7635C26.7737 50.8378 26.4941 50.9369 26.4941 50.9369Z" fill="#FFC600"/>
<path d="M33.6677 48.7939C33.534 48.7939 33.3881 48.7939 33.2422 48.7815C33.838 48.9797 34.4581 49.0665 35.0903 49.0665C34.9201 48.9797 34.7742 48.8806 34.6283 48.7568C34.3122 48.7815 33.9839 48.8063 33.6677 48.7939Z" fill="#FFC600"/>
<path d="M34.7499 46.4651C34.0325 46.9854 34.4095 47.4561 35.0174 47.5056C35.6132 47.5552 36.8291 47.357 38.0206 46.6509C37.4492 46.7376 35.674 45.8086 34.7499 46.4651Z" fill="#FFC600"/>
<path d="M32.9626 47.3446C32.3789 47.4809 31.7102 48.4347 32.7437 48.571C33.8501 48.732 34.9931 48.5833 36.0266 48.1374C34.9809 48.0259 33.838 47.134 32.9626 47.3446Z" fill="#FFC600"/>
<path d="M36.3427 47.964C36.8169 47.8525 37.2789 47.7038 37.7166 47.518C37.5464 47.4313 37.4005 47.3446 37.2546 47.2579C36.598 47.5428 35.8928 47.6914 35.1876 47.6791C35.1268 47.6791 35.0782 47.6791 35.0296 47.6791L35.0174 47.6914C35.4065 47.8277 35.8807 48.0259 36.3427 47.964Z" fill="#FFC600"/>
<path d="M37.8626 47.5923C37.4857 47.741 37.1574 47.8649 36.8291 47.9516C36.1968 48.2489 35.5524 48.4966 34.8837 48.67C34.9566 48.7691 35.0417 48.8435 35.1512 48.9054C35.2484 48.9673 35.37 49.0045 35.4794 49.0169C35.5038 49.0169 35.5402 49.0293 35.5646 49.0293C36.3062 48.893 37.0236 48.6453 37.6802 48.2984C37.6924 48.286 37.7045 48.286 37.7167 48.2984C37.7288 48.2984 37.741 48.3108 37.7531 48.3232C37.7653 48.3356 37.7653 48.348 37.7531 48.3727C37.7531 48.3851 37.741 48.3975 37.7288 48.4099C37.1452 48.7196 36.5373 48.9426 35.8929 49.0912C37.0723 49.2027 38.2395 48.8435 40.3673 47.7781C39.042 47.964 38.3489 47.8029 37.8626 47.5923Z" fill="#FFC600"/>
<path d="M30.7861 48.509C29.8621 48.7072 29.8134 49.5495 30.5916 49.7725C31.3698 49.9831 32.5856 49.9831 34.9445 49.2275C33.4732 49.2151 31.7832 48.2984 30.7861 48.509Z" fill="#FFC600"/>
<path d="M32.7194 49.9955C32.4519 50.045 32.1844 50.0698 31.9048 50.0822C32.3668 50.1813 32.8288 50.2433 33.303 50.2556C33.0963 50.1937 32.9018 50.107 32.7194 49.9955Z" fill="#FFC600"/>
</svg>
